<?xml version="1.0" encoding="utf-8"?>
<!-- Generator: Adobe Illustrator 24.1.0, SVG Export Plug-In . SVG Version: 6.00 Build 0)  -->
<svg version="1.1" id="Layer_1" xmlns="http://www.w3.org/2000/svg" xmlns:xlink="http://www.w3.org/1999/xlink" x="0px" y="0px"
	 viewBox="0 0 131.09 103.26" style="enable-background:new 0 0 131.09 103.26;" xml:space="preserve">
<style type="text/css">
	.st0{fill:none;stroke:#575756;stroke-width:0.25;stroke-miterlimit:10;}
	.st1{fill:none;stroke:#3C4294;stroke-width:3;stroke-linecap:round;stroke-linejoin:round;stroke-miterlimit:10;}
	.st2{fill:#3C4294;}
	.st3{fill:#FFFFFF;}
	.st4{fill:#706F6F;}
	.st5{fill:none;}
	.st6{fill:none;stroke:#3C4294;stroke-width:2.5;stroke-linecap:round;stroke-linejoin:round;stroke-miterlimit:10;}
	.st7{fill:none;stroke:#716F6F;stroke-miterlimit:10;}
	.st8{fill:none;stroke:#706F6F;stroke-width:3;stroke-linecap:round;stroke-linejoin:round;stroke-miterlimit:10;}
	.st9{fill:none;stroke:#312783;stroke-width:0.25;stroke-miterlimit:10;}
	.st10{fill:none;stroke:#3C4294;stroke-width:0.5;stroke-miterlimit:10;}
</style>
<path class="st0" d="M84.32-6.47"/>
<path class="st1" d="M52.97,75.85c-0.36,0.49-1.05,0.89-1.25,1.46c-0.53,1.56-0.4,2.67-0.15,3.77c0.11,0.46,0.04,0.94,0.05,1.41
	c0.05,1.57-0.99,2.98-2.44,3.63c-1.45,0.65-3.1,0.69-4.69,0.62"/>
<g>
	<path class="st2" d="M75.11,1.7c-1.21,0.47-1.52,1.31-1.93,2.13c-0.35,0.83-0.78,1.71-1.05,2.6c-0.28,0.89-0.49,1.79-0.75,2.69
		c-0.14,0.45-0.3,0.9-0.53,1.33c-0.22,0.43-0.59,0.83-1.05,1l-0.04-0.09c0.81-0.48,0.93-1.44,1.06-2.27
		c0.13-0.86,0.19-1.74,0.32-2.64c0.14-0.9,0.19-1.82,0.76-2.78c0.28-0.47,0.64-0.96,1.18-1.38c0.51-0.43,1.37-0.76,2.03-0.69
		L75.11,1.7z"/>
	<path class="st2" d="M69.86,11.41c-0.39,0.33-1.01,0.43-1.5,0.32c-0.5-0.09-0.94-0.28-1.33-0.5c-0.81-0.43-1.34-1.12-1.93-1.71
		c-0.59-0.59-1.17-1.2-1.84-1.68c-0.64-0.46-1.48-0.97-2.56-0.27l-0.05-0.09c0.52-0.45,1.19-0.63,1.7-0.58
		c0.52,0.03,0.97,0.19,1.38,0.39c0.8,0.41,1.47,0.95,2.13,1.48c0.66,0.53,1.36,1,1.94,1.55c0.61,0.51,1.12,1.07,2.03,1.01
		L69.86,11.41z"/>
	<path class="st2" d="M60.7,7.57c-0.8,1.05-0.65,1.93-0.59,2.86c0.12,0.91,0.17,1.91,0.37,2.84c0.19,0.94,0.45,1.85,0.65,2.8
		c0.09,0.48,0.17,0.97,0.17,1.49c0.01,0.51-0.13,1.09-0.46,1.51l-0.08-0.06c0.49-0.9,0.14-1.84-0.15-2.65
		c-0.3-0.84-0.68-1.66-1.01-2.53c-0.32-0.87-0.73-1.71-0.71-2.85c0.01-0.56,0.08-1.17,0.34-1.83c0.23-0.65,0.81-1.38,1.41-1.67
		L60.7,7.57z"/>
	<path class="st2" d="M60.89,19.01c-0.19,0.52-0.7,0.97-1.18,1.16c-0.49,0.21-0.97,0.27-1.43,0.3c-0.92,0.06-1.73-0.28-2.54-0.49
		c-0.81-0.21-1.61-0.45-2.44-0.51c-0.79-0.06-1.78-0.06-2.39,1.18l-0.09-0.06c0.24-0.7,0.74-1.24,1.21-1.48
		c0.48-0.26,0.95-0.36,1.4-0.41c0.91-0.07,1.76,0.05,2.61,0.16c0.84,0.12,1.7,0.15,2.47,0.32c0.79,0.12,1.51,0.34,2.3-0.24
		L60.89,19.01z"/>
	<path class="st2" d="M50.91,20.65c-0.18,1.38,0.19,2.28,0.57,3.25c0.41,0.93,0.81,1.99,1.33,2.93c0.52,0.94,1.09,1.85,1.65,2.82
		c0.15,0.27,0.3,0.56,0.44,0.86c0.37,0.77,0.67,1.63,0.67,2.55l-0.1-0.02c-0.05-0.49-0.19-0.93-0.38-1.34c0,0-0.22-0.48-0.62-1.06
		c-0.05-0.08-0.12-0.17-0.12-0.17c0,0-0.12-0.16-0.24-0.32c-0.6-0.82-1.25-1.59-1.86-2.41c-0.61-0.84-1.28-1.64-1.66-2.88
		c-0.09-0.3-0.18-0.62-0.23-0.98c-0.06-0.34-0.1-0.7-0.09-1.09c-0.03-0.75,0.21-1.62,0.56-2.2L50.91,20.65z"/>
	<path class="st2" d="M71.28,2.15c-1.14,0.63-1.34,1.5-1.64,2.37c-0.24,0.87-0.56,1.8-0.72,2.73c-0.17,0.92-0.27,1.85-0.43,2.78
		c-0.09,0.47-0.2,0.94-0.38,1.4c-0.17,0.46-0.5,0.91-0.94,1.15l-0.05-0.09c0.76-0.59,0.77-1.57,0.8-2.42c0.03-0.88-0.02-1.77,0-2.68
		c0.03-0.91-0.03-1.84,0.41-2.87c0.22-0.51,0.51-1.04,1-1.53c0.45-0.5,1.27-0.94,1.93-0.95L71.28,2.15z"/>
	<path class="st2" d="M67.25,12.54c-0.36,0.39-0.97,0.58-1.47,0.54c-0.52-0.01-0.97-0.15-1.4-0.31c-0.86-0.32-1.47-0.94-2.14-1.45
		c-0.66-0.51-1.31-1.04-2.04-1.43c-0.69-0.37-1.59-0.76-2.6,0.09L57.53,9.9c0.47-0.52,1.12-0.8,1.63-0.82
		c0.53-0.04,0.99,0.06,1.43,0.2c0.85,0.3,1.58,0.75,2.31,1.19c0.72,0.44,1.49,0.81,2.13,1.28c0.68,0.42,1.25,0.91,2.16,0.72
		L67.25,12.54z"/>
	<path class="st2" d="M57.59,9.99c-0.68,1.16-0.43,2.03-0.26,2.96c0.22,0.9,0.39,1.9,0.7,2.82c0.3,0.92,0.66,1.81,0.97,2.75
		c0.14,0.48,0.28,0.97,0.34,1.5c0.07,0.52-0.01,1.13-0.28,1.61l-0.09-0.05c0.39-0.99-0.07-1.9-0.45-2.69
		c-0.4-0.82-0.87-1.6-1.29-2.43c-0.42-0.84-0.92-1.64-1.04-2.79c-0.05-0.57-0.05-1.2,0.13-1.9c0.15-0.68,0.65-1.5,1.22-1.87
		L57.59,9.99z"/>
	<path class="st2" d="M59.09,21.56c-0.13,0.57-0.58,1.1-1.04,1.35c-0.46,0.28-0.93,0.42-1.38,0.51c-0.91,0.19-1.75-0.05-2.59-0.15
		c-0.83-0.11-1.66-0.24-2.49-0.18c-0.79,0.05-1.77,0.18-2.23,1.54l-0.09-0.05c0.16-0.75,0.58-1.37,1.02-1.68
		c0.44-0.33,0.9-0.5,1.34-0.61c0.89-0.2,1.76-0.19,2.61-0.2c0.85,0,1.71-0.08,2.5-0.02c0.8,0.01,1.55,0.14,2.26-0.57L59.09,21.56z"
		/>
	<path class="st2" d="M49.37,24.63c0.04,1.24,0.47,1.81,0.96,2.51c0.31,0.4,0.61,0.86,0.94,1.3c0.02,0.02,0.04,0.05,0.05,0.07
		c0.18,0.24,0.37,0.48,0.57,0.7c1.15,1.29,2.47,2.34,3.65,3.79l-0.05,0.11c-0.64-0.55-1.31-0.97-1.98-1.38
		c-0.67-0.43-1.34-0.89-1.99-1.38c-0.65-0.52-1.36-0.97-1.88-1.94c-0.25-0.49-0.49-1.05-0.6-1.76c-0.14-0.68-0.02-1.53,0.24-2.07
		L49.37,24.63z"/>
</g>
<g>
	<path class="st2" d="M16.62,103.25c-0.06-1.33-0.68-1.97-1.25-2.73c-0.59-0.76-1.15-1.57-1.66-2.43c-0.53-0.85-1.05-1.74-1.39-2.84
		c-0.16-0.56-0.27-1.18-0.24-1.9c0.01-0.7,0.28-1.61,0.79-2.31l0.06,0.05c-0.9,1.49-0.55,2.76-0.19,3.66
		c0.38,0.95,0.93,1.73,1.5,2.48c0.57,0.75,1.22,1.4,1.74,2.35c0.25,0.47,0.51,0.98,0.67,1.61c0.18,0.61,0.23,1.42,0.04,2.09
		L16.62,103.25z"/>
	<path class="st2" d="M12.8,91.14c0.41-0.81,1.18-1.46,1.81-1.73c0.65-0.3,1.22-0.35,1.74-0.34c1.04,0.03,1.8,0.48,2.59,0.84
		c0.79,0.37,1.54,0.77,2.36,1.07c0.78,0.29,1.72,0.62,2.68,0.04l0.04,0.06c-0.46,0.34-1.04,0.51-1.54,0.5
		c-0.51,0.01-0.99-0.06-1.44-0.15c-0.91-0.2-1.76-0.49-2.62-0.72c-0.86-0.2-1.75-0.36-2.65-0.48c-0.88-0.07-1.79-0.23-2.9,0.95
		L12.8,91.14z"/>
	<path class="st2" d="M23.97,91.03c0.75-0.81,0.72-1.66,0.8-2.54c0.06-0.9,0.19-1.82,0.37-2.75c0.17-0.94,0.38-1.89,0.84-2.87
		c0.25-0.49,0.56-0.99,1.04-1.46c0.46-0.47,1.22-0.9,2.02-1.04l0.01,0.08c-1.57,0.41-2.15,1.52-2.47,2.38
		c-0.34,0.92-0.46,1.83-0.55,2.73c-0.08,0.91-0.05,1.8-0.28,2.78c-0.12,0.48-0.26,0.98-0.52,1.49c-0.25,0.5-0.69,1.02-1.22,1.26
		L23.97,91.03z"/>
	<path class="st2" d="M28.93,80.4c0.8-0.28,1.76-0.2,2.36,0.06c0.64,0.25,1.06,0.61,1.41,0.97c0.69,0.75,0.91,1.59,1.21,2.4
		c0.29,0.81,0.54,1.62,0.89,2.4c0.34,0.75,0.75,1.63,1.8,1.88l-0.01,0.07c-0.54-0.07-1.05-0.35-1.39-0.7
		c-0.36-0.35-0.63-0.73-0.88-1.11c-0.48-0.78-0.87-1.57-1.31-2.34c-0.45-0.75-0.95-1.48-1.49-2.19c-0.55-0.66-1.07-1.41-2.59-1.37
		L28.93,80.4z"/>
	<path class="st2" d="M17.75,99.54c0.18-1.21-0.32-1.93-0.73-2.75c-0.45-0.82-0.84-1.69-1.19-2.6c-0.37-0.91-0.71-1.84-0.85-2.95
		c-0.05-0.56-0.06-1.16,0.09-1.84c0.13-0.66,0.55-1.46,1.17-2.03l0.05,0.06c-1.13,1.24-1.01,2.51-0.82,3.43
		c0.21,0.98,0.6,1.82,1.02,2.65c0.43,0.82,0.94,1.57,1.28,2.55c0.16,0.49,0.32,1.01,0.37,1.62c0.07,0.59-0.02,1.34-0.33,1.9
		L17.75,99.54z"/>
	<path class="st2" d="M16.16,87.46c0.53-0.69,1.4-1.16,2.06-1.28c0.68-0.15,1.24-0.09,1.75,0.02c1,0.24,1.66,0.82,2.35,1.34
		c0.7,0.51,1.36,1.05,2.09,1.51c0.7,0.44,1.55,0.94,2.57,0.57l0.03,0.07c-0.5,0.24-1.08,0.29-1.57,0.18
		c-0.49-0.09-0.94-0.26-1.36-0.44c-0.84-0.38-1.61-0.83-2.41-1.23c-0.8-0.37-1.63-0.71-2.48-1c-0.84-0.25-1.69-0.58-2.97,0.31
		L16.16,87.46z"/>
	<path class="st2" d="M26.96,89.63c0.85-0.64,0.97-1.48,1.21-2.33c0.22-0.87,0.5-1.75,0.85-2.62c0.33-0.89,0.7-1.78,1.33-2.66
		c0.33-0.43,0.72-0.87,1.27-1.24c0.53-0.38,1.35-0.66,2.15-0.64l-0.01,0.08c-1.6,0.11-2.36,1.09-2.83,1.88
		c-0.5,0.84-0.78,1.71-1.03,2.58c-0.24,0.88-0.37,1.76-0.76,2.67c-0.2,0.45-0.42,0.92-0.76,1.36c-0.32,0.44-0.84,0.86-1.39,0.99
		L26.96,89.63z"/>
	<path class="st2" d="M33.64,80.14c0.83-0.12,1.74,0.13,2.28,0.5c0.57,0.36,0.92,0.8,1.19,1.22c0.53,0.87,0.58,1.74,0.72,2.59
		c0.13,0.85,0.22,1.7,0.41,2.53c0.19,0.8,0.42,1.75,1.39,2.19l-0.03,0.07c-0.52-0.17-0.95-0.55-1.22-0.95
		c-0.28-0.41-0.47-0.83-0.64-1.26c-0.32-0.86-0.54-1.71-0.82-2.55c-0.3-0.82-0.64-1.63-1.03-2.44c-0.41-0.76-0.78-1.59-2.25-1.83
		L33.64,80.14z"/>
	<path class="st2" d="M39.62,89.18c0.88,0.06,1.44-0.25,2.08-0.6c0.62-0.35,1.34-0.66,2.05-0.98c1.41-0.63,2.88-1.34,4.93-1.16
		l0.06,0.11c-0.92,0.03-1.66,0.31-2.35,0.62c-0.7,0.32-1.37,0.67-2.01,1.05c-0.65,0.38-1.26,0.83-2.07,1.1
		c-0.41,0.12-0.84,0.25-1.32,0.26c-0.47,0.04-1.01-0.09-1.39-0.32L39.62,89.18z"/>
	<path class="st2" d="M36.6,88.12c1.02-0.08,1.72-0.54,2.52-0.97c0.78-0.44,1.68-0.82,2.61-1.17c0.93-0.35,1.93-0.65,3.09-0.74
		c1.12-0.06,2.65,0.13,3.92,1.22l-0.05,0.05c-1.27-0.93-2.55-0.96-3.55-0.82c-1.04,0.14-1.95,0.49-2.81,0.88
		c-0.86,0.4-1.64,0.9-2.59,1.26c-0.23,0.09-0.47,0.18-0.73,0.25c-0.24,0.08-0.5,0.15-0.78,0.19c-0.53,0.12-1.14,0.08-1.64-0.07
		L36.6,88.12z"/>
</g>
<path class="st3" d="M43.05,86.26c0.58-0.09,1.33,0.19,1.94,0.39c0.62,0.2,0.36,0.29,0.36,0.29s-0.26,0.26-1.05,0.55
	s-1.15,0.41-1.45,0.45C42.55,87.98,43.05,86.26,43.05,86.26z"/>
<path class="st1" d="M52.51,29.43c0.03,0.19,1.76,3.87,1.87,4.04c2.66,3.92,0.06,6.98-0.01,10.45"/>
<path class="st4" d="M51.92,28.61"/>
<path class="st3" d="M51.36,28.81"/>
<path class="st3" d="M52.49,27.42"/>
<path class="st5" d="M51.56,29.5c0.08,0.13,0.18,0.26,0.28,0.38c0.11,0.12,0.23,0.23,0.37,0.31"/>
<path class="st6" d="M39.53,60.64c-0.34,0.04-0.56,0.45-0.79,0.77c-0.51,0.7-1.32,1.04-2.05,0.87c-0.39-0.09-0.75-0.32-1.1-0.56
	c-0.36-0.24-2.82-0.99-2.52-0.66l3.09,1.01l-1.45-0.7"/>
<path d="M117.11,8.23"/>
<path class="st7" d="M69.77,64.2c-0.91,0.07-1.46,0.38-1.57,0.97"/>
<path class="st7" d="M67.92,61.06"/>
<g>
	<g>
		<path class="st2" d="M100.53,65.36c0.3-1.31,0.6-2.62,0.9-3.93c-0.31,0.05-0.62,0.09-0.94,0.14c0.4,1.13,0.58,2.33,0.63,3.53
			c0.02,0.45,0.63,0.54,0.87,0.23c0.57-0.72,0.77-1.71,0.78-2.61c-0.31,0.05-0.62,0.09-0.94,0.14c0.6,1.03,0.96,2.18,1.17,3.35
			c0.1,0.56,0.87,0.54,0.97-0.01c0.15-0.85,0.31-1.69,0.46-2.54c0.05-0.26-0.17-0.52-0.42-0.56c-0.28-0.03-0.5,0.17-0.55,0.44
			c-0.15,0.85-0.31,1.69-0.46,2.54c0.32,0,0.65-0.01,0.97-0.01c-0.23-1.25-0.6-2.5-1.24-3.6c-0.11-0.19-0.28-0.33-0.52-0.3
			c-0.2,0.03-0.41,0.22-0.42,0.43c-0.01,0.72-0.12,1.54-0.58,2.12c0.29,0.08,0.58,0.15,0.87,0.23c-0.05-1.28-0.27-2.56-0.69-3.78
			c-0.07-0.2-0.31-0.33-0.52-0.3c-0.23,0.04-0.37,0.22-0.42,0.43c-0.3,1.31-0.6,2.62-0.9,3.93c-0.06,0.26,0.18,0.53,0.42,0.56
			C100.27,65.83,100.47,65.62,100.53,65.36L100.53,65.36z"/>
	</g>
</g>
<g>
	<g>
		<path class="st2" d="M121.38,66.87c0.58,1.33,1.08,2.67,1.32,4.11c0.11,0.65,0.99,0.48,0.97-0.15c-0.48-12.6-0.94-25.21-0.8-37.82
			c0.04-3.51,0.13-7.02,0.28-10.53c-0.32,0-0.65,0.01-0.97,0.01c0.29,5.59,0.44,11.19,0.24,16.79c-0.22,5.89-0.18,11.78,0.18,17.66
			c0.2,3.32,0.51,6.63,0.91,9.93c0.07,0.6,0.85,0.5,0.97-0.01c0.17-0.74,0.34-1.48,0.51-2.23c0.14-0.63-0.83-0.74-0.97-0.12
			c-0.17,0.74-0.34,1.48-0.51,2.23c0.32,0,0.65-0.01,0.97-0.01c-0.71-5.86-1.11-11.75-1.21-17.65c-0.09-5.76,0.27-11.51,0.2-17.27
			c-0.04-3.15-0.15-6.3-0.32-9.44c-0.03-0.56-0.95-0.55-0.97,0.01c-0.54,12.65-0.29,25.31,0.14,37.96
			c0.12,3.55,0.25,7.11,0.39,10.66c0.32-0.05,0.65-0.1,0.97-0.15c-0.26-1.52-0.77-2.95-1.39-4.36
			C122.02,65.88,121.13,66.29,121.38,66.87L121.38,66.87z"/>
	</g>
</g>
<g>
	<g>
		<path class="st2" d="M103.89,63.95c0.39,0.22,0.95,0.58,1.18,0.97c0.25,0.43,0.36,1.02,0.51,1.5c0.34,1.08,0.59,2.2,0.6,3.34
			c0.32,0.04,0.65,0.08,0.97,0.12c-0.04-6.47,0.03-12.95,0.13-19.42c0.09-6.3,0.29-12.61,0.24-18.91c-0.03-3.28-0.37-6.58-0.02-9.85
			c-0.32-0.04-0.65-0.08-0.97-0.12c-0.71,12.14-0.58,24.3-0.5,36.45c0.01,1.51-0.06,3,0.31,4.48c0.32,1.27,0.85,2.45,1.38,3.64
			c0.26,0.59,1.16,0.18,0.9-0.4c-0.46-1.04-0.95-2.08-1.25-3.18c-0.37-1.34-0.35-2.68-0.36-4.06c-0.02-2.98-0.04-5.96-0.05-8.94
			c-0.02-5.93-0.01-11.86,0.14-17.78c0.09-3.37,0.22-6.73,0.41-10.09c0.04-0.63-0.9-0.76-0.97-0.12c-0.3,2.85-0.09,5.72-0.01,8.58
			c0.09,3.16-0.01,6.32-0.05,9.48c-0.09,6.39-0.2,12.78-0.26,19.17c-0.03,3.65-0.05,7.3-0.02,10.95c0,0.63,0.97,0.76,0.97,0.12
			c-0.01-1.4-0.3-2.73-0.73-4.06c-0.18-0.56-0.32-1.26-0.71-1.71c-0.38-0.44-0.94-0.8-1.44-1.08
			C103.72,62.71,103.35,63.64,103.89,63.95L103.89,63.95z"/>
	</g>
</g>
<g>
	<g>
		<path class="st2" d="M78.62,68.94c0.53-0.15,0.72-0.52,0.85-1.04c0.19-0.73,0.31-1.47,0.52-2.19c0.38-1.27,0.91-2.51,1.69-3.6
			c-0.28-0.03-0.56-0.07-0.84-0.1c0.38,1.05,0.17,2.22,0.37,3.31c0.1,0.54,0.28,1.28,0.84,1.53c0.54,0.25,1.04-0.14,1.32-0.57
			c0.2-0.31,0.31-0.64,0.46-0.98c0.05-0.11,0.45-0.63,0.26-0.7c0.06,0.02,0.12,0.3,0.14,0.36c0.16,0.44,0.28,1.13,0.77,1.35
			c0.24,0.11,0.5,0.06,0.7-0.1c0.37-0.3,0.22-0.55,0.24-0.93c0.01-0.11,0.04-0.21,0.1-0.31c-0.23-0.06-0.29-0.03-0.17,0.08
			c0,0.04,0.13,0.25,0.14,0.28c0.14,0.31,0.23,0.65,0.36,0.97c0.19,0.49,0.48,1.12,1.09,1.14c0.35,0.01,0.55-0.24,0.55-0.57
			c-0.01-0.79,0.12-1.58,0.47-2.3c-0.3,0-0.6,0.01-0.9,0.01c0.13,0.48,0.27,0.96,0.4,1.45c0.14,0.51,0.86,0.3,0.94-0.14
			c0.33-2.01,0.67-4.02,1-6.03c-0.32,0-0.65,0.01-0.97,0.01c0.29,1.43,0.58,2.86,0.86,4.29c0.09,0.45,0.76,0.6,0.94,0.12
			c0.11-0.31,0.23-0.63,0.34-0.94c-0.31-0.04-0.62-0.08-0.94-0.12c0.12,0.73,0.33,1.42,0.76,2.02c0.3,0.41,0.94,0.09,0.87-0.38
			c-0.06-0.44-0.1-1,0.16-1.39c0.24-0.36,0.29-0.04,0.41,0.3c0.18,0.51,0.84,0.29,0.94-0.14c0.15-0.65,0.06-1.32,0.18-1.97
			c0.02-0.09,0.28-0.66,0.26-0.71c0.02,0.04-0.46,0.09-0.43,0.04c0,0,0.07,0.14,0.09,0.19c0.11,0.25,0.17,0.52,0.23,0.79
			c0.28,1.21,0.41,2.44,0.62,3.66c0.08,0.47,0.75,0.59,0.94,0.12c0.34-0.87,0.61-1.75,0.84-2.65c-0.26,0.11-0.52,0.23-0.78,0.34
			c0.38,0.38,0.36,1.33,0.47,1.83c0.13,0.58,0.35,1.11,0.66,1.63c0.63,1.06,1.37,1.9,1.41,3.2c0.02,0.65,0.99,0.48,0.97-0.15
			c-0.16-6.32,0.05-12.64,0.35-18.96c0.15-3.09,0.32-6.17,0.47-9.26c0.04-0.69,0.13-1.41,0.08-2.11c-0.05-0.78-0.15-1.56-0.2-2.34
			c-0.12-1.56-0.19-3.12-0.24-4.68c-0.11-3.58-0.03-7.16,0.14-10.73c-0.32-0.04-0.65-0.08-0.97-0.12
			c-0.19,5.94-0.19,11.89-0.17,17.84c0.01,2.95,0.02,5.91,0,8.86c-0.01,2.78-0.1,5.56-0.02,8.34c0.08,2.95,0.45,5.8,1.4,8.59
			c0.21,0.61,1.1,0.2,0.9-0.4c-1.74-5.12-1.34-10.59-1.31-15.92c0.04-5.78-0.03-11.56,0-17.35c0.02-3.28,0.06-6.57,0.17-9.85
			c0.02-0.63-0.94-0.76-0.97-0.12c-0.15,3.13-0.22,6.27-0.17,9.4c0.02,1.56,0.08,3.12,0.17,4.67c0.09,1.59,0.36,3.2,0.28,4.79
			c-0.31,6.3-0.69,12.6-0.85,18.91c-0.09,3.52-0.11,7.04-0.02,10.56c0.32-0.05,0.65-0.1,0.97-0.15c-0.05-1.42-0.83-2.37-1.53-3.54
			c-0.38-0.63-0.54-1.29-0.68-2.01c-0.12-0.64-0.23-1.28-0.71-1.76c-0.3-0.3-0.7,0.03-0.78,0.34c-0.21,0.81-0.47,1.61-0.77,2.39
			c0.31,0.04,0.62,0.08,0.94,0.12c-0.27-1.53-0.32-3.21-0.91-4.66c-0.2-0.5-0.68-1.05-1.23-0.59c-0.87,0.72-0.54,2.35-0.76,3.29
			c0.31-0.05,0.62-0.09,0.94-0.14c-0.25-0.72-0.91-1.42-1.69-0.9c-0.79,0.52-0.87,1.7-0.75,2.55c0.29-0.13,0.58-0.26,0.87-0.38
			c-0.33-0.46-0.48-1-0.57-1.55c-0.08-0.47-0.77-0.59-0.94-0.12c-0.11,0.31-0.23,0.63-0.34,0.94c0.31,0.04,0.62,0.08,0.94,0.12
			c-0.29-1.43-0.58-2.86-0.86-4.29c-0.11-0.55-0.88-0.55-0.97,0.01c-0.33,2.01-0.67,4.02-1,6.03c0.31-0.05,0.62-0.09,0.94-0.14
			c-0.13-0.48-0.27-0.96-0.4-1.45c-0.13-0.45-0.74-0.33-0.9,0.01c-0.43,0.88-0.55,1.85-0.54,2.83c0.18-0.19,0.36-0.38,0.55-0.57
			c-0.19-0.01-0.4-0.8-0.49-1.04c-0.14-0.4-0.29-0.86-0.62-1.16c-1-0.93-1.71,0.79-1.41,1.61c0.02-0.17,0.04-0.33,0.06-0.5
			c-0.16,0.24,0.31,0.13,0.33,0.07c0.01-0.03-0.07-0.13-0.08-0.16c-0.03-0.16-0.12-0.33-0.18-0.49c-0.09-0.27-0.17-0.57-0.35-0.79
			c-0.75-0.94-1.64,0.24-1.93,0.94c-0.13,0.32-0.23,0.79-0.54,1c0.08-0.06,0.05,0.12,0-0.08c-0.06-0.2-0.15-0.38-0.19-0.59
			c-0.25-1.21-0.03-2.47-0.45-3.65c-0.13-0.35-0.63-0.4-0.84-0.1c-0.64,0.9-1.14,1.9-1.52,2.93c-0.2,0.55-0.37,1.11-0.52,1.68
			c-0.05,0.21-0.29,1.8-0.39,1.83C77.88,68.12,78.01,69.11,78.62,68.94L78.62,68.94z"/>
	</g>
</g>
<g>
	<g>
		<path class="st4" d="M69.59,62.86c0.05,0.01,0.1,0.02,0.15,0.03c-0.04-0.01-0.09-0.02-0.13-0.03c0.1,0.03,0.2,0.07,0.3,0.13
			c-0.04-0.02-0.07-0.04-0.11-0.06c0.44,0.26,0.74,0.68,1.15,0.98c0.21,0.15,0.54,0.13,0.69-0.1c0.15-0.21,0.13-0.54-0.09-0.7
			c-0.28-0.2-0.51-0.46-0.77-0.69c-0.3-0.27-0.66-0.48-1.06-0.54c-0.26-0.04-0.53,0.17-0.55,0.44
			C69.14,62.57,69.31,62.82,69.59,62.86L69.59,62.86z"/>
	</g>
</g>
<g>
	<g>
		<path class="st2" d="M69.8,62.81c0.63,0.04,1.12,0.44,1.58,0.84c0.56,0.5,1.1,1,1.65,1.51c1.13,1.03,2.25,2.05,3.38,3.08
			c0.47,0.43,1.04-0.39,0.58-0.8c-1.19-1.09-2.38-2.17-3.57-3.26c-0.55-0.5-1.09-1.03-1.67-1.51c-0.53-0.44-1.13-0.81-1.83-0.86
			C69.31,61.77,69.19,62.77,69.8,62.81L69.8,62.81z"/>
	</g>
</g>
<g>
	<g>
		<path class="st2" d="M68.95,64.94c0.91-0.31,1.93-0.32,2.85-0.02c0.94,0.31,1.66,0.93,2.35,1.61c0.65,0.64,1.28,1.28,2.08,1.73
			c0.78,0.44,1.74,0.94,2.63,0.6c0.52-0.2,0.24-1.13-0.33-0.91c-0.47,0.18-1.08-0.19-1.5-0.39c-0.43-0.2-0.82-0.45-1.19-0.75
			c-0.72-0.6-1.33-1.34-2.07-1.93c-1.47-1.17-3.38-1.46-5.15-0.85C68.08,64.21,68.36,65.14,68.95,64.94L68.95,64.94z"/>
	</g>
</g>
<g>
	<g>
		<path class="st2" d="M70.44,64.25c0.55,0,1.08,0.14,1.52,0.46c0.5,0.36,1-0.48,0.54-0.8c-0.62-0.45-1.35-0.61-2.11-0.63
			c-0.39-0.01-0.79-0.02-1.18,0.02c-0.43,0.04-0.72,0.28-1.01,0.58c-0.12,0.12-0.23,0.23-0.38,0.31c-0.16,0.09-0.33,0.13-0.49,0.2
			c-0.39,0.19-0.61,0.62-0.49,1.05c0.09,0.34,0.39,0.63,0.74,0.67c0.38,0.05,0.73-0.19,0.94-0.49c0.06-0.09,0.12-0.19,0.16-0.3
			c0.03-0.09,0.03-0.22,0.08-0.3c-0.02,0.02-0.02,0,0.05-0.01c0.1-0.02,0.2-0.07,0.3-0.11c0.41-0.17,0.79-0.43,1.12-0.73
			c0.41-0.38-0.06-1.21-0.53-0.78c-0.28,0.25-0.58,0.45-0.92,0.6c-0.37,0.15-0.67,0.25-0.81,0.66c-0.07,0.21-0.05,0.36-0.26,0.46
			c-0.03,0.02-0.05-0.03-0.04-0.04c0.03,0.08,0.02,0.15-0.03,0.21c-0.05,0.05-0.04,0.06,0.03,0.01c0.16-0.04,0.35-0.13,0.49-0.2
			c0.33-0.18,0.54-0.46,0.82-0.68c0.26-0.2,0.7-0.14,1.01-0.14c0.67,0,1.4,0.04,1.97,0.45c0.18-0.27,0.36-0.54,0.54-0.8
			c-0.57-0.41-1.24-0.65-1.95-0.65c-0.26,0-0.46,0.18-0.5,0.44C70.04,63.92,70.18,64.26,70.44,64.25L70.44,64.25z"/>
	</g>
</g>
<path class="st3" d="M51.32,28.31c-0.66-0.28,2.21,2.79,1.79,1.27c-0.4-1.49-1.31-2.42-1.31-2.42l-0.48,1.36l0.24,0.24"/>
<line class="st5" x1="14.03" y1="97.82" x2="16.81" y2="95.7"/>
<g>
	<path class="st4" d="M1.94,47.92"/>
</g>
<g>
	<path class="st5" d="M10.12,51.78"/>
</g>
<g>
	<g>
		<g>
			<path class="st2" d="M0.26,56.21c1.29-0.79,1.94-1.88,2.71-2.92c0.77-1.09,1.61-2.14,2.51-3.16c0.9-1.04,1.86-2.06,3.04-3
				c0.6-0.46,1.26-0.91,2.02-1.27c0.74-0.37,1.68-0.6,2.4-0.53c-0.02,0.03-0.04,0.05-0.06,0.08c-1.54,0-2.91,1-3.89,1.87
				c-1.04,0.91-1.88,1.91-2.68,2.93c-0.79,1.03-1.46,2.1-2.4,3.2c-0.48,0.55-0.98,1.13-1.61,1.68c-0.6,0.55-1.42,1.08-2.06,1.21
				C0.25,56.28,0.25,56.25,0.26,56.21z"/>
		</g>
		<g>
			<path class="st2" d="M12.83,45.34c0.84-0.07,1.52,0.24,1.81,0.63c0.32,0.39,0.4,0.84,0.44,1.27c0.05,0.89-0.31,1.79-0.53,2.67
				c-0.22,0.88-0.42,1.76-0.43,2.6c-0.02,0.81,0.08,1.75,1.18,2.01c-0.01,0.03-0.03,0.05-0.04,0.08c-0.59-0.07-1.05-0.37-1.28-0.75
				c-0.24-0.37-0.36-0.79-0.43-1.22c-0.12-0.86-0.05-1.74,0.02-2.61c0.04-0.85,0.1-1.7,0.18-2.56c0.03-0.81,0.21-1.68-0.97-2.04
				C12.79,45.39,12.81,45.36,12.83,45.34z"/>
		</g>
		<g>
			<path class="st2" d="M15.3,54.52c1.21-0.08,2.02-0.74,2.94-1.33c0.92-0.62,1.9-1.2,2.92-1.73c1.03-0.55,2.11-1.08,3.34-1.45
				c0.62-0.18,1.29-0.31,2-0.34c0.7-0.04,1.51,0.12,2.03,0.47c-0.03,0.02-0.05,0.03-0.08,0.05c-1.18-0.61-2.6-0.24-3.66,0.15
				c-1.11,0.41-2.1,0.96-3.05,1.55c-0.95,0.59-1.8,1.27-2.86,1.84c-0.53,0.28-1.09,0.56-1.73,0.76c-0.62,0.21-1.39,0.29-1.91,0.1
				C15.27,54.57,15.28,54.54,15.3,54.52z"/>
		</g>
		<g>
			<path class="st2" d="M28.45,50.1c0.67,0.26,1.07,0.82,1.14,1.29c0.1,0.48-0.01,0.93-0.15,1.35c-0.3,0.84-0.92,1.53-1.41,2.26
				c-0.49,0.73-0.97,1.46-1.28,2.23c-0.31,0.74-0.57,1.65,0.12,2.31c-0.02,0.02-0.04,0.04-0.06,0.05c-0.4-0.29-0.62-0.75-0.65-1.19
				c-0.04-0.44,0.02-0.88,0.13-1.29c0.22-0.84,0.6-1.62,0.97-2.4c0.35-0.77,0.71-1.53,1.09-2.29c0.33-0.73,0.8-1.47,0.03-2.26
				C28.4,50.13,28.43,50.11,28.45,50.1z"/>
		</g>
		<g>
			<path class="st2" d="M26.86,59.53c0.88,0.37,1.71,0.27,2.62,0.22c0.9-0.07,1.86-0.06,2.84-0.02c0.98,0.03,2,0.12,3.04,0.39
				c1,0.27,2.19,0.82,2.68,1.79c-0.03,0.01-0.05,0.01-0.08,0.02c-0.58-0.88-1.67-1.25-2.62-1.42c-0.98-0.18-1.95-0.2-2.91-0.16
				c-0.95,0.04-1.88,0.19-2.86,0.16c-0.24-0.01-0.49-0.02-0.74-0.05c-0.25-0.02-0.5-0.06-0.75-0.14c-0.5-0.11-0.97-0.39-1.28-0.73
				C26.83,59.56,26.85,59.54,26.86,59.53z"/>
		</g>
		<g>
			<path class="st2" d="M4.06,55.3c1.29-0.59,1.98-1.57,2.79-2.5c0.81-0.97,1.69-1.9,2.63-2.79c0.94-0.91,1.93-1.81,3.14-2.61
				c0.61-0.39,1.28-0.76,2.03-1.03c0.74-0.28,1.65-0.41,2.33-0.26c-0.02,0.02-0.04,0.05-0.06,0.07c-1.46-0.17-2.86,0.67-3.86,1.42
				c-1.06,0.79-1.94,1.67-2.78,2.59c-0.84,0.92-1.55,1.89-2.53,2.86c-0.49,0.48-1.02,0.98-1.65,1.44c-0.61,0.46-1.43,0.87-2.05,0.91
				C4.04,55.36,4.05,55.33,4.06,55.3z"/>
		</g>
		<g>
			<path class="st2" d="M16.87,46.08c0.81,0.02,1.42,0.4,1.66,0.82c0.27,0.42,0.31,0.88,0.31,1.32c-0.03,0.89-0.45,1.75-0.73,2.6
				c-0.28,0.85-0.55,1.7-0.63,2.54c-0.09,0.8-0.07,1.75,0.94,2.13c-0.02,0.02-0.03,0.05-0.05,0.07c-0.55-0.13-0.96-0.49-1.14-0.89
				c-0.2-0.4-0.27-0.83-0.31-1.26c-0.04-0.86,0.1-1.73,0.24-2.59c0.11-0.84,0.24-1.68,0.39-2.52c0.1-0.8,0.35-1.65-0.75-2.13
				C16.83,46.13,16.85,46.11,16.87,46.08z"/>
		</g>
		<g>
			<path class="st2" d="M18.42,55.48c1.14,0.06,1.96-0.52,2.87-1.01c0.92-0.52,1.9-1,2.92-1.43c1.02-0.45,2.1-0.87,3.31-1.12
				c0.61-0.12,1.25-0.2,1.94-0.16c0.67,0.03,1.42,0.26,1.89,0.65c-0.03,0.01-0.05,0.03-0.08,0.04c-1.06-0.71-2.45-0.48-3.49-0.18
				c-1.1,0.3-2.09,0.77-3.04,1.26c-0.95,0.5-1.82,1.09-2.87,1.55c-0.53,0.22-1.07,0.45-1.69,0.58c-0.6,0.14-1.33,0.14-1.8-0.11
				C18.39,55.52,18.4,55.5,18.42,55.48z"/>
		</g>
		<g>
			<path class="st2" d="M31.26,52.35c0.61,0.32,0.94,0.9,0.95,1.38c0.04,0.49-0.11,0.92-0.29,1.32c-0.38,0.81-1.04,1.44-1.58,2.12
				c-0.54,0.68-1.07,1.37-1.45,2.1c-0.37,0.71-0.72,1.6-0.14,2.31c-0.02,0.02-0.04,0.03-0.06,0.05c-0.34-0.32-0.5-0.8-0.48-1.24
				c0.01-0.44,0.12-0.87,0.26-1.28c0.3-0.81,0.73-1.56,1.17-2.3c0.41-0.73,0.84-1.46,1.28-2.18c0.39-0.7,0.92-1.39,0.27-2.25
				C31.21,52.38,31.24,52.36,31.26,52.35z"/>
		</g>
		<g>
			<path class="st2" d="M28.74,61.59c0.69,0.35,1.32,0.25,2.04,0.15c0.7-0.11,1.47-0.16,2.25-0.23c1.55-0.13,3.24-0.24,4.98,0.36
				c0,0.03,0,0.05-0.01,0.08c-0.85-0.2-1.67-0.19-2.47-0.13c-0.8,0.06-1.57,0.17-2.33,0.31c-0.76,0.14-1.5,0.36-2.3,0.37
				c-0.4,0-0.82-0.01-1.23-0.15c-0.41-0.1-0.8-0.39-0.99-0.72C28.7,61.62,28.72,61.61,28.74,61.59z"/>
		</g>
	</g>
</g>
<path class="st3" d="M30.68,60.57c0.12-0.01,0.2-0.1,0.3-0.11c0.93-0.05,1.28,0.09,1.55,0.28c0.3,0.21,0.42,0.35,0.3,0.52
	s-0.24,0.25-0.56,0.27c-0.33,0.03-0.44-0.02-0.87,0.06c-0.01,0-0.34,0.1-0.35,0.1C30.63,61.7,30.68,60.57,30.68,60.57z"/>
<g>
	<g>
		<g>
			<path class="st2" d="M122.15,66.13c-0.32-0.66-0.92-2.51-2.01-1.77c-0.28,0.19-0.39,0.52-0.5,0.82
				c-0.06,0.18-0.12,0.37-0.19,0.55c-0.02,0.06-0.11,0.18-0.11,0.24c0.01,0.12,0.48,0.18,0.32-0.07c0.02,0.17,0.04,0.33,0.07,0.5
				c0.3-0.83-0.42-2.53-1.41-1.59c-0.32,0.3-0.47,0.76-0.61,1.17c-0.09,0.24-0.28,1.02-0.5,1.03c0.19,0.18,0.37,0.37,0.56,0.55
				c0.01-0.97-0.11-1.94-0.54-2.82c-0.17-0.34-0.78-0.43-0.9,0.01c-0.13,0.48-0.27,0.96-0.4,1.45c0.31,0.04,0.62,0.08,0.94,0.12
				c-0.33-2.01-0.67-4.02-1-6.03c-0.1-0.57-0.86-0.53-0.97,0.01c-0.29,1.43-0.58,2.86-0.86,4.29c0.31-0.05,0.62-0.09,0.94-0.14
				c-0.11-0.31-0.23-0.63-0.34-0.94c-0.18-0.49-0.86-0.32-0.94,0.14c-0.09,0.55-0.24,1.09-0.57,1.55c0.29,0.12,0.58,0.24,0.87,0.36
				c0.12-0.84,0.04-2.02-0.75-2.54c-0.79-0.52-1.44,0.21-1.69,0.92c0.31,0.04,0.62,0.08,0.94,0.12c-0.22-0.94,0.11-2.57-0.76-3.28
				c-0.56-0.46-1.03,0.11-1.23,0.61c-0.59,1.46-0.64,3.13-0.91,4.67c0.31-0.05,0.62-0.09,0.94-0.14c-0.31-0.78-0.56-1.58-0.77-2.4
				c-0.08-0.32-0.49-0.61-0.78-0.32c-0.68,0.68-0.67,1.77-0.89,2.65c-0.15,0.62,0.82,0.74,0.97,0.12c0.13-0.53,0.11-1.58,0.52-1.99
				c-0.26-0.11-0.52-0.21-0.78-0.32c0.23,0.9,0.5,1.78,0.84,2.65c0.19,0.48,0.85,0.32,0.94-0.14c0.21-1.22,0.34-2.45,0.62-3.66
				c0.06-0.25,0.12-0.51,0.22-0.75c0.02-0.05,0.09-0.21,0.09-0.2c-0.01-0.09,0.02,0.02,0-0.01c0,0-0.49,0.12-0.4-0.02
				c-0.01,0.01,0.21,0.54,0.23,0.64c0.14,0.67,0.05,1.36,0.2,2.04c0.1,0.44,0.76,0.62,0.94,0.12c0.12-0.35,0.17-0.64,0.41-0.28
				c0.26,0.39,0.22,0.96,0.16,1.4c-0.07,0.48,0.59,0.76,0.87,0.36c0.43-0.6,0.64-1.3,0.76-2.03c-0.31,0.05-0.62,0.09-0.94,0.14
				c0.11,0.31,0.23,0.63,0.34,0.94c0.18,0.5,0.85,0.3,0.94-0.14c0.29-1.43,0.58-2.86,0.86-4.29c-0.32,0-0.65,0.01-0.97,0.01
				c0.33,2.01,0.67,4.02,1,6.03c0.07,0.45,0.8,0.62,0.94,0.12c0.13-0.48,0.27-0.96,0.4-1.45c-0.3,0-0.6,0.01-0.9,0.01
				c0.35,0.72,0.48,1.51,0.47,2.3c0,0.34,0.21,0.57,0.56,0.55c0.72-0.03,1-0.9,1.19-1.45c0.04-0.12,0.45-0.9,0.42-0.98
				c0.08-0.09,0.01-0.1-0.2-0.03c0.02,0.05,0.05,0.09,0.07,0.14c-0.01,0.11,0.01,0.24,0,0.35c-0.02,0.25-0.03,0.38,0.13,0.59
				c0.47,0.62,1.09,0.2,1.34-0.36c0.13-0.28,0.17-0.76,0.36-0.99c0.09-0.1-0.03-0.02,0-0.02c-0.04,0,0.2,0.38,0.23,0.43
				c0.14,0.27,0.22,0.57,0.36,0.84C121.53,67.1,122.43,66.7,122.15,66.13L122.15,66.13z"/>
		</g>
	</g>
</g>
<g>
	<g>
		<path class="st2" d="M130.1,63.2c-0.05,0.24-0.1,0.48-0.14,0.72c0.31-0.05,0.62-0.09,0.94-0.14c-0.11-0.31-0.23-0.63-0.34-0.94
			c-0.17-0.49-0.87-0.32-0.94,0.14c-0.08,0.55-0.23,1.1-0.57,1.55c0.29,0.12,0.58,0.24,0.87,0.36c0.13-0.82,0.04-1.95-0.69-2.49
			c-0.29-0.22-0.67-0.28-1-0.13c-0.4,0.18-0.63,0.61-0.76,1.01c0.31,0.04,0.62,0.08,0.94,0.12c-0.24-0.96-0.03-1.97-0.48-2.89
			c-0.25-0.51-0.83-0.79-1.25-0.28c-0.32,0.38-0.42,0.95-0.53,1.42c-0.15,0.65-0.26,1.3-0.37,1.96c-0.09,0.59-0.17,1.18-0.27,1.77
			c0.31-0.05,0.62-0.09,0.94-0.14c-0.31-0.78-0.57-1.58-0.77-2.4c-0.08-0.33-0.48-0.6-0.78-0.32c-0.7,0.64-0.67,1.79-0.89,2.65
			c-0.06,0.26,0.18,0.53,0.42,0.56c0.29,0.04,0.48-0.18,0.55-0.44c0.1-0.4,0.16-0.8,0.24-1.2c0.05-0.24,0.11-0.64,0.28-0.78
			c-0.26-0.11-0.52-0.21-0.78-0.32c0.23,0.9,0.5,1.78,0.84,2.65c0.19,0.48,0.85,0.32,0.94-0.14c0.18-1.01,0.29-2.04,0.49-3.05
			c0.05-0.27,0.11-0.54,0.18-0.81c0.02-0.08-0.02,0.07,0-0.01c0.01-0.02,0.01-0.05,0.02-0.07c0.02-0.06,0.03-0.12,0.05-0.17
			c0.03-0.1,0.06-0.2,0.1-0.3c0.02-0.04,0.04-0.08,0.05-0.13c0.01-0.02,0.07-0.13,0.02-0.05c-0.05,0.09,0.03-0.04,0.03-0.04
			c0-0.07-0.08,0.06-0.01,0.01c-0.11,0.07-0.22,0.07-0.33,0.04c-0.02-0.01-0.12-0.07-0.11-0.08c0.01-0.01,0.09,0.14,0.05,0.06
			c-0.04-0.06,0.04,0.08,0.05,0.11c0.02,0.06,0.04,0.11,0.06,0.17c0.06,0.17,0.1,0.31,0.12,0.5c0.08,0.62,0.02,1.25,0.17,1.87
			c0.05,0.21,0.19,0.39,0.42,0.42c0.21,0.03,0.45-0.1,0.51-0.31c0.04-0.13,0.09-0.26,0.16-0.38c0.01-0.02,0.08-0.1,0.07-0.09
			c-0.02,0.02,0.07-0.04,0.01-0.01c0.05-0.02,0.05-0.02,0,0c0.01,0,0.03,0,0.04,0c-0.02,0.01-0.05,0.01-0.07,0
			c-0.04-0.01-0.03-0.01,0.02,0.01c0,0,0.07,0.05,0.09,0.07c0.34,0.39,0.33,1.04,0.25,1.52c-0.08,0.49,0.58,0.75,0.87,0.36
			c0.44-0.59,0.65-1.31,0.76-2.03c-0.31,0.05-0.62,0.09-0.94,0.14c0.11,0.31,0.23,0.63,0.34,0.94c0.18,0.5,0.85,0.3,0.94-0.14
			c0.05-0.24,0.1-0.48,0.14-0.72C131.2,62.69,130.23,62.57,130.1,63.2L130.1,63.2z"/>
	</g>
</g>
<g>
	<g>
		<path class="st3" d="M38.95,60.85c-0.42,0.31,0.01,0.33,0.06,0.44c1.39,3,2.15,6.25,4.3,8.76c2.43,2.84,7.79,3.44,9.06,6.96
			c0.1,0.29,2.39-1.46,4.02-1.78c2.46-0.48,5-1.09,6.95-2.66c1.55-1.26,1.54-3.2,3.26-6.17c0.76-1.32,4.38-2.98,4.2-3.05
			c-1.62-0.62-2.92-3.48-3.32-4.41c-0.96-2.22-0.07-1.87-1.71-4.05c-0.24-0.32-2.12-3.7-2.39-4.09c-2.11-2.95-5.77-3.55-7.72-6.62
			c-0.18-0.28-0.49-1.82-0.82-1.88c-0.32-0.05-0.53,1.39-0.77,1.61c-1.59,1.48-2.02,1.13-3.6,2.51c0,0-5.52,3.05-7.58,5.47
			C40.02,55.23,39.73,60.27,38.95,60.85z"/>
		<g>
			<path class="st2" d="M38.95,59.6c-0.42,0.44-0.19,1.49-0.19,2.07c0.01,0.75,0.28,0.91,0.58,1.62c0.96,2.24,1.67,4.63,2.99,6.7
				c1.11,1.74,2.59,2.8,4.39,3.75c1.58,0.83,3.34,1.56,4.6,2.88c0.3,0.32,0.83,1.57,1.11,1.67c0.38,0.14,1.59-0.82,1.91-0.99
				c2.03-1.07,4.36-1.16,6.48-2.03c2.06-0.85,3.31-2,4.13-4.04c0.76-1.9,1.37-3.74,3.1-4.95c0.74-0.51,2.51-1.09,2.74-1.94
				c0.11-0.39,0.19-1.82,0-2.19c-0.09-0.17-0.42-0.27-0.6-0.39c-0.42-0.29-0.76-0.69-1.06-1.09c-0.98-1.28-1.8-2.92-2.16-4.5
				c-0.29-1.3-1.04-2.22-1.7-3.35c-0.63-1.08-1.18-2.24-1.9-3.27c-1.23-1.77-3.21-2.75-4.94-3.93c-0.87-0.59-1.69-1.26-2.35-2.09
				c-0.53-0.67-0.53-1.42-0.96-2.1c-0.51-0.8-0.63,0.19-0.83,0.71c-0.31,0.81-1.09,1.28-1.83,1.7c-1.16,0.66-2.23,1.44-3.38,2.13
				c-1.74,1.05-3.47,2.17-5.01,3.5c-1.78,1.54-2.89,3.55-3.64,5.76c-0.31,0.93-0.56,1.87-0.83,2.81
				C39.46,58.53,39.35,59.23,38.95,59.6c-0.13,0.12-0.01,1.06-0.01,1.25c0,0.19,0.15,1.13,0.01,1.25c0.35-0.32,0.46-0.9,0.59-1.34
				c0.27-0.91,0.49-1.82,0.79-2.72c0.67-2.06,1.61-4.06,3.19-5.58c1.46-1.4,3.19-2.53,4.9-3.59c1.07-0.66,2.09-1.39,3.15-2.04
				c0.73-0.45,1.5-0.79,2.15-1.38c0.41-0.37,0.47-0.56,0.64-1.07c0.07-0.2,0.17-0.83,0.46-0.83c0.41,0.01,0.63,1.47,0.76,1.76
				c0.47,0.97,1.41,1.77,2.27,2.41c1.82,1.36,4.02,2.3,5.4,4.18c0.82,1.12,1.42,2.41,2.12,3.6c0.4,0.69,0.96,1.31,1.29,2.03
				c0.33,0.72,0.37,1.54,0.66,2.29c0.36,0.93,0.82,1.85,1.35,2.69c0.29,0.45,0.6,0.89,0.97,1.27c0.1,0.1,1.14,0.79,1.15,0.84
				c0-0.83,0-1.67,0-2.5c-0.66,0.64-1.73,1-2.49,1.51c-1.43,0.95-2.09,2.08-2.76,3.66c-0.54,1.27-0.9,2.75-1.9,3.76
				c-1.35,1.37-3.39,2.04-5.2,2.5c-1.67,0.42-3.12,0.72-4.64,1.56c-0.21,0.12-1.05,0.76-1.32,0.69c-0.25-0.06-0.58-0.98-0.78-1.25
				c-1.77-2.3-4.94-2.97-7.2-4.65c-1.58-1.18-2.58-2.95-3.37-4.72c-0.44-1-0.83-2.02-1.23-3.03c-0.2-0.51-0.41-1.02-0.63-1.52
				c-0.12-0.27-0.43-0.57-0.49-0.81c0,0.83,0,1.67,0,2.5c0.06-0.06,0.12-0.12,0.18-0.19c0.14-0.15,0.01-1.04,0.01-1.25
				C38.96,60.64,38.81,59.75,38.95,59.6z"/>
		</g>
	</g>
</g>
<path class="st8" d="M31.07,59.69"/>
<path class="st9" d="M94.64-3.36"/>
<path class="st10" d="M57.1,10.52c0.91,0.45,1.72,1.1,2.37,1.88"/>
<path class="st10" d="M56.82,12.47c1.16,0.7,2.33,1.4,3.49,2.09"/>
<path class="st10" d="M57.45,14.76c1.12,0.88,2.27,1.71,3.46,2.48"/>
<path class="st10" d="M58.45,17.31c0.79,0.51,1.58,1.03,2.37,1.54"/>
<path class="st10" d="M60.32,7.92c0.55,0.68,1.1,1.36,1.65,2.04"/>
<path class="st10" d="M61.83,7.05c0.83,1.25,1.41,2.67,1.69,4.15"/>
<path class="st10" d="M64.51,8.41c0.23,1.28,0.48,2.56,0.74,3.84"/>
<path class="st10" d="M66.55,10.15c0.3,0.71,0.61,1.41,0.91,2.12"/>
<path class="st10" d="M68.43,8.39c0.61,0.83,1.22,1.66,1.83,2.48"/>
<path class="st10" d="M68.85,6.23c0.75,1.01,1.5,2.02,2.26,3.03"/>
<path class="st10" d="M69.58,3.75c0.68,0.85,1.3,1.76,1.83,2.71"/>
<path class="st10" d="M70.49,2.42c0.61,0.75,1.17,1.54,1.68,2.36"/>
<path class="st10" d="M56.35,19.37c0.72,0.9,1.47,1.78,2.24,2.64"/>
<path class="st10" d="M53.59,18.93c0.59,0.86,1.36,1.58,2.12,2.3c0.49,0.46,0.99,0.93,1.48,1.39"/>
<path class="st10" d="M51.99,19.18c0.93,1.27,2.01,2.43,3.2,3.45"/>
<path class="st10" d="M51,20.37c0.44,0.77,0.96,1.49,1.54,2.16"/>
<path class="st10" d="M49.34,24.52c0.71,0.3,1.42,0.6,2.13,0.9"/>
<path class="st10" d="M49.45,26.93c1.11,0.45,2.21,0.91,3.32,1.36"/>
<path class="st10" d="M12.06,48.04c-0.21-0.89,0.16-1.88,0.9-2.41"/>
<path class="st10" d="M14.56,48.89c0.78-0.94,1.69-1.78,2.69-2.47"/>
<path class="st10" d="M14.01,51.2c1.04-1.3,2.45-2.31,4.02-2.86"/>
<path class="st10" d="M18.54,55.39c1.01-1.08,1.92-2.26,2.72-3.5"/>
<path class="st10" d="M21.21,54.72c1.02-1.17,1.84-2.51,2.41-3.95"/>
<path class="st10" d="M24.21,53.47c0.39-1.22,0.9-2.41,1.53-3.53"/>
<path class="st10" d="M26.72,52.21c0.34-0.75,0.59-1.54,0.74-2.36"/>
<path class="st10" d="M30.85,52.21c-0.61,1.15-1.88,1.79-3.07,2.37"/>
<path class="st10" d="M26.69,56.8c1.74-0.49,3.37-1.37,4.72-2.56"/>
<path class="st10" d="M26.54,58.84c1.25-0.51,2.41-1.25,3.41-2.16"/>
<path class="st10" d="M29.89,60.18c-0.33,0.5-0.76,0.93-1.24,1.27"/>
<path class="st10" d="M31.36,60.25c-0.28,0.66-0.75,1.24-1.34,1.65"/>
<path class="st10" d="M10.34,46.11c-0.39,1.19-0.45,2.48-0.18,3.7"/>
<path class="st10" d="M8.08,47.67c-0.68,1.4-0.79,3.07-0.31,4.55"/>
<path class="st10" d="M17.76,49.86c-0.47,0.54-0.94,1.07-1.41,1.61c-0.22,0.26-0.45,0.51-0.64,0.79c-0.16,0.24-0.3,0.49-0.43,0.74
	c-0.22,0.4-0.44,0.8-0.65,1.2"/>
<path class="st10" d="M12.17,93.32c1.14,0.66,2.5,0.96,3.81,0.83"/>
<path class="st10" d="M12.82,91.18c0.69,0.36,1.45,0.59,2.23,0.67"/>
<path class="st10" d="M16.04,87.58c0.54,0.67,1,1.41,1.36,2.19"/>
<path class="st10" d="M18,86.9c1.02,1.16,2.08,2.4,2.36,3.92"/>
<path class="st10" d="M20.48,86.98c0.99,1.33,1.77,2.82,2.29,4.39"/>
<path class="st10" d="M23.65,88.94c0.1,0.56,0.43,1.08,0.89,1.41"/>
<path class="st10" d="M25.45,87.2c0.61,0.67,1.04,1.51,1.22,2.4"/>
<path class="st10" d="M25.92,84.5c1.08,1.05,1.84,2.42,2.16,3.89"/>
<path class="st10" d="M26.6,82.43c1.07,1.06,1.86,2.39,2.3,3.83"/>
<path class="st10" d="M28.27,80.76c0.71,0.83,1.22,1.83,1.48,2.89"/>
<path class="st10" d="M33.47,80.3c0.04,0.73-0.27,1.48-0.83,1.97"/>
<path class="st10" d="M35.19,80.68c-0.27,1.32-0.7,2.62-1.29,3.83"/>
<path class="st10" d="M36.62,82.06c-0.15,1.69-0.73,3.33-1.67,4.74"/>
<path class="st10" d="M37.46,84.85c-0.15,1.13-0.61,2.22-1.31,3.13"/>
<path class="st10" d="M40.45,87.09c-0.03,0.75-0.17,1.5-0.4,2.22"/>
<path class="st10" d="M41.8,86.45c0.28,0.8,0.37,1.66,0.26,2.5"/>
<path class="st10" d="M43.24,85.79c0.4,0.59,0.5,1.37,0.28,2.05"/>
<path class="st10" d="M13.03,96.07c1.37,0.52,2.85,0.72,4.31,0.6"/>
<path class="st10" d="M5.49,50.48c-0.09,1.3-0.05,2.61,0.12,3.91"/>
</svg>
