<?xml version="1.0" encoding="utf-8"?>
<!-- Generator: Adobe Illustrator 24.1.0, SVG Export Plug-In . SVG Version: 6.00 Build 0)  -->
<svg version="1.1" id="Layer_1" xmlns="http://www.w3.org/2000/svg" xmlns:xlink="http://www.w3.org/1999/xlink" x="0px" y="0px"
	 viewBox="0 0 131.1 103.3" style="enable-background:new 0 0 131.1 103.3;" xml:space="preserve">
<style type="text/css">
	.st0{fill:none;stroke:#02CC3B;stroke-width:0.75;stroke-miterlimit:10;}
	.st1{fill:none;stroke:#3C4294;stroke-width:3;stroke-linecap:round;stroke-linejoin:round;stroke-miterlimit:10;}
	.st2{fill:#FFFFFF;}
	.st3{fill:none;stroke:#FC4912;stroke-width:0.75;stroke-miterlimit:10;}
	.st4{fill:none;stroke:#17B1FF;stroke-width:0.75;stroke-miterlimit:10;}
	.st5{fill:none;stroke:#B445FF;stroke-width:0.75;stroke-miterlimit:10;}
	.st6{fill:none;stroke:#3C4294;stroke-width:2.5;stroke-linecap:round;stroke-linejoin:round;stroke-miterlimit:10;}
	.st7{fill:none;stroke:#575756;stroke-width:0.25;stroke-miterlimit:10;}
	.st8{fill:#3C4294;}
	.st9{fill:#706F6F;}
	.st10{fill:none;}
	.st11{fill:none;stroke:#716F6F;stroke-miterlimit:10;}
	.st12{fill:none;stroke:#706F6F;stroke-width:3;stroke-linecap:round;stroke-linejoin:round;stroke-miterlimit:10;}
	.st13{fill:none;stroke:#312783;stroke-width:0.25;stroke-miterlimit:10;}
</style>
<path class="st0" d="M67.3,11.8c0.1,0.2,0.1,0.3,0.2,0.5"/>
<path class="st1" d="M52.5,29.4c0,0.2,1.8,3.9,1.9,4c2.7,3.9,0.1,7,0,10.5"/>
<path class="st2" d="M51.3,28.3c-0.7-0.3,2.2,2.8,1.8,1.3c-0.4-1.5-1.3-2.4-1.3-2.4l-0.5,1.4l0.2,0.2"/>
<path class="st3" d="M56.8,12.5c0.4,0.2,0.8,0.5,1.2,0.7"/>
<path class="st3" d="M61.8,7c0.3,0.4,0.5,0.9,0.8,1.3"/>
<path class="st3" d="M65,10.9c0.1,0.5,0.2,0.9,0.3,1.4"/>
<path class="st3" d="M66.6,10.1c0.2,0.5,0.5,1.1,0.7,1.6"/>
<path class="st3" d="M68.4,8.4c0.2,0.3,0.5,0.6,0.7,0.9"/>
<path class="st3" d="M70.6,5.1c0.3,0.5,0.6,0.9,0.9,1.4"/>
<path class="st3" d="M71.3,3.5c0.3,0.4,0.6,0.8,0.8,1.3"/>
<path class="st3" d="M53.8,21.3c0.4,0.5,0.9,0.9,1.4,1.3"/>
<path class="st4" d="M57.1,10.5c0.3,0.2,0.6,0.3,0.9,0.5"/>
<path class="st4" d="M57.5,14.8c0.4,0.3,0.8,0.6,1.1,0.9"/>
<path class="st4" d="M60.1,18.4c0.2,0.2,0.5,0.3,0.7,0.5"/>
<path class="st4" d="M61.3,9.1c0.2,0.3,0.5,0.6,0.7,0.9"/>
<path class="st4" d="M68.8,6.2c0.2,0.3,0.5,0.7,0.7,1"/>
<path class="st4" d="M56.3,19.4c0.4,0.5,0.8,1,1.2,1.4"/>
<path class="st4" d="M55.7,21.2c0.5,0.5,1,0.9,1.5,1.4"/>
<path class="st4" d="M51,20.4c0.1,0.3,0.3,0.5,0.5,0.8"/>
<path class="st4" d="M50.5,25c0.3,0.1,0.6,0.3,0.9,0.4"/>
<path class="st4" d="M49.5,26.9c0.6,0.2,1.1,0.5,1.7,0.7"/>
<path class="st5" d="M58,11.1c0.5,0.4,1,0.8,1.4,1.3"/>
<path class="st5" d="M58.6,15.6c0.8,0.6,1.5,1.1,2.3,1.6"/>
<path class="st5" d="M58.5,17.3c0.5,0.4,1.1,0.7,1.6,1.1"/>
<path class="st5" d="M60.3,7.9c0.3,0.4,0.6,0.8,1,1.2"/>
<path class="st5" d="M69.6,7.2c0.5,0.7,1,1.4,1.5,2"/>
<path class="st5" d="M57.5,20.8c0.3,0.4,0.7,0.8,1.1,1.2"/>
<path class="st5" d="M53.6,18.9c0.6,0.9,1.4,1.6,2.1,2.3"/>
<path class="st5" d="M51.5,21.1c0.3,0.5,0.7,1,1.1,1.4"/>
<path class="st5" d="M49.3,24.5c0.4,0.2,0.8,0.3,1.2,0.5"/>
<path class="st5" d="M51.1,27.6c0.6,0.2,1.1,0.5,1.7,0.7"/>
<path class="st0" d="M58,13.2c0.8,0.5,1.5,0.9,2.3,1.4"/>
<path class="st0" d="M62.6,8.4c0.4,0.9,0.7,1.8,0.9,2.8"/>
<path class="st0" d="M64.5,8.4c0.1,0.8,0.3,1.6,0.5,2.5"/>
<path class="st0" d="M69.1,9.3c0.4,0.5,0.8,1,1.1,1.5"/>
<path class="st0" d="M69.6,3.7c0.3,0.4,0.7,0.9,1,1.3"/>
<path class="st0" d="M70.5,2.4c0.3,0.4,0.6,0.7,0.8,1.1"/>
<path class="st0" d="M52,19.2c0.6,0.8,1.2,1.5,1.8,2.1"/>
<path class="st1" d="M53,75.8c-0.4,0.5-1,0.9-1.2,1.5c-0.5,1.6-0.4,2.7-0.2,3.8c0.1,0.5,0,0.9,0,1.4c0,1.6-1,3-2.4,3.6
	c-1.5,0.7-3.1,0.7-4.7,0.6"/>
<path class="st2" d="M43,86.3c0.6-0.1,1.3,0.2,1.9,0.4c0.6,0.2,0.4,0.3,0.4,0.3s-0.3,0.3-1,0.6s-1.2,0.4-1.5,0.4
	C42.5,88,43,86.3,43,86.3z"/>
<path class="st3" d="M12.2,93.3c0.4,0.2,0.8,0.4,1.2,0.5"/>
<path class="st3" d="M16.7,88.4c0.3,0.4,0.5,0.9,0.7,1.3"/>
<path class="st3" d="M19.8,89.3c0.3,0.5,0.5,1,0.6,1.5"/>
<path class="st3" d="M25.5,87.2c0.3,0.3,0.6,0.7,0.8,1.1"/>
<path class="st3" d="M26.6,82.4c0.3,0.3,0.5,0.5,0.7,0.8"/>
<path class="st3" d="M33.5,80.3c0,0.2,0,0.3,0,0.5"/>
<path class="st3" d="M37.5,84.8c-0.1,0.5-0.2,1.1-0.4,1.6"/>
<path class="st3" d="M41.8,86.4c0.1,0.4,0.2,0.8,0.3,1.2"/>
<path class="st0" d="M13.3,93.8c0.9,0.3,1.8,0.4,2.7,0.3"/>
<path class="st0" d="M16,87.6c0.2,0.3,0.4,0.6,0.6,0.9"/>
<path class="st0" d="M18,86.9c0.7,0.8,1.3,1.5,1.8,2.4"/>
<path class="st0" d="M26.2,88.3c0.2,0.4,0.4,0.8,0.4,1.3"/>
<path class="st0" d="M27.3,83.3c0.7,0.9,1.2,1.9,1.6,3"/>
<path class="st0" d="M33.4,80.8c-0.1,0.6-0.4,1.1-0.8,1.5"/>
<path class="st0" d="M37,86.5c-0.2,0.5-0.5,1.1-0.9,1.5"/>
<path class="st0" d="M42.1,87.7c0,0.4,0,0.8,0,1.3"/>
<path class="st4" d="M12.8,91.2c0.3,0.2,0.7,0.3,1.1,0.4"/>
<path class="st4" d="M20.5,87c0.5,0.7,0.9,1.4,1.3,2.1"/>
<path class="st4" d="M24,89.7c0.2,0.2,0.4,0.5,0.6,0.6"/>
<path class="st4" d="M25.9,84.5c0.3,0.3,0.5,0.5,0.7,0.8"/>
<path class="st4" d="M29.2,82.1c0.2,0.5,0.4,1,0.6,1.5"/>
<path class="st4" d="M35.2,80.7c-0.1,0.5-0.2,0.9-0.3,1.4"/>
<path class="st4" d="M35.6,85.7c-0.2,0.4-0.4,0.7-0.6,1.1"/>
<path class="st4" d="M40.5,87.1c0,0.3,0,0.7-0.1,1"/>
<path class="st4" d="M43.2,85.8c0.2,0.3,0.3,0.6,0.4,1"/>
<path class="st4" d="M13,96.1c0.5,0.2,0.9,0.3,1.4,0.4"/>
<path class="st5" d="M13.9,91.6c0.4,0.1,0.8,0.2,1.1,0.2"/>
<path class="st5" d="M21.8,89.1c0.4,0.7,0.7,1.5,1,2.3"/>
<path class="st5" d="M23.6,88.9c0,0.3,0.2,0.5,0.3,0.8"/>
<path class="st5" d="M26.7,85.3c0.7,0.9,1.2,1.9,1.4,3"/>
<path class="st5" d="M28.3,80.8c0.4,0.4,0.7,0.9,0.9,1.4"/>
<path class="st5" d="M34.9,82c-0.2,0.9-0.6,1.7-1,2.5"/>
<path class="st5" d="M36.6,82.1c-0.1,1.3-0.5,2.5-1,3.6"/>
<path class="st5" d="M40.3,88.1c-0.1,0.4-0.2,0.8-0.3,1.2"/>
<path class="st5" d="M43.6,86.8c0.1,0.4,0,0.7-0.1,1.1"/>
<path class="st5" d="M14.4,96.5c1,0.2,1.9,0.3,2.9,0.2"/>
<path class="st6" d="M39.5,60.6c-0.3,0-0.6,0.5-0.8,0.8c-0.5,0.7-1.3,1-2,0.9c-0.4-0.1-0.8-0.3-1.1-0.6c-0.4-0.2-2.8-1-2.5-0.7
	l3.1,1l-1.5-0.7"/>
<path class="st2" d="M31.7,60.6c0.1,0,0.2-0.1,0.3-0.1c0.9,0,1.3,0.1,1.5,0.3c0.3,0.2,0.4,0.3,0.3,0.5s-0.2,0.2-0.6,0.3
	c-0.3,0-0.4,0-0.9,0.1c0,0-0.3,0.1-0.3,0.1C31.6,61.7,31.7,60.6,31.7,60.6"/>
<path class="st4" d="M16.4,47c0.3-0.2,0.5-0.4,0.8-0.6"/>
<path class="st4" d="M25.1,51.2c0.2-0.4,0.4-0.8,0.6-1.3"/>
<path class="st4" d="M27.2,50.8c0.1-0.3,0.2-0.6,0.2-1"/>
<path class="st4" d="M29.8,55.5c0.6-0.4,1.1-0.8,1.7-1.2"/>
<path class="st4" d="M30.8,61.2c-0.2,0.3-0.5,0.5-0.8,0.7"/>
<path class="st4" d="M10,47.9c0,0.6,0,1.3,0.2,1.9"/>
<path class="st4" d="M17.8,49.9c-0.5,0.5-0.9,1.1-1.4,1.6"/>
<path class="st5" d="M14.6,48.9c0.6-0.7,1.2-1.3,1.9-1.9"/>
<path class="st5" d="M24.2,53.5c0.2-0.8,0.5-1.5,0.9-2.3"/>
<path class="st5" d="M26.7,52.2c0.2-0.4,0.4-0.9,0.5-1.4"/>
<path class="st5" d="M26.7,56.8c1.1-0.3,2.1-0.8,3.1-1.3"/>
<path class="st5" d="M31.4,60.2c-0.1,0.3-0.3,0.6-0.6,0.9"/>
<path class="st5" d="M10.3,46.1c-0.2,0.6-0.3,1.2-0.3,1.8"/>
<path class="st5" d="M16.4,51.5c-0.2,0.3-0.4,0.5-0.6,0.8c-0.2,0.2-0.3,0.5-0.4,0.7c-0.2,0.4-0.4,0.8-0.6,1.2"/>
<path class="st3" d="M12.3,46.4c0.2-0.3,0.4-0.6,0.7-0.8"/>
<path class="st3" d="M14,51.2c0.4-0.5,0.9-1,1.4-1.4"/>
<path class="st3" d="M18.5,55.4c0.2-0.3,0.5-0.5,0.7-0.8"/>
<path class="st3" d="M21.2,54.7c0.4-0.5,0.8-1,1.1-1.5"/>
<path class="st3" d="M30.9,52.2c-0.2,0.4-0.6,0.8-1,1.1"/>
<path class="st3" d="M26.5,58.8c0.6-0.2,1.1-0.5,1.7-0.8"/>
<path class="st3" d="M29.9,60.2c-0.1,0.1-0.2,0.3-0.3,0.4"/>
<path class="st3" d="M7.5,50.8c0,0.5,0.1,0.9,0.3,1.4"/>
<path class="st3" d="M5.5,50.5c0,0.6-0.1,1.3,0,2"/>
<path class="st0" d="M12.1,48c-0.1-0.5,0-1.1,0.2-1.6"/>
<path class="st0" d="M15.4,49.8c0.8-0.6,1.7-1.1,2.6-1.5"/>
<path class="st0" d="M19.3,54.6c0.7-0.9,1.4-1.8,2-2.7"/>
<path class="st0" d="M22.3,53.2c0.5-0.8,0.9-1.6,1.3-2.5"/>
<path class="st0" d="M29.9,53.3c-0.6,0.5-1.4,0.9-2.1,1.2"/>
<path class="st0" d="M28.2,58c0.6-0.4,1.2-0.8,1.7-1.3"/>
<path class="st0" d="M29.6,60.5c-0.3,0.3-0.6,0.6-1,0.9"/>
<path class="st0" d="M8.1,47.7c-0.5,1-0.7,2.1-0.6,3.2"/>
<path class="st0" d="M5.5,52.4c0,0.7,0.1,1.3,0.2,2"/>
<path class="st7" d="M84.3-6.5"/>
<g>
	<path class="st8" d="M75.1,1.7c-1.2,0.5-1.5,1.3-1.9,2.1c-0.3,0.8-0.8,1.7-1.1,2.6c-0.3,0.9-0.5,1.8-0.8,2.7
		c-0.1,0.4-0.3,0.9-0.5,1.3c-0.2,0.4-0.6,0.8-1.1,1l0-0.1c0.8-0.5,0.9-1.4,1.1-2.3c0.1-0.9,0.2-1.7,0.3-2.6c0.1-0.9,0.2-1.8,0.8-2.8
		c0.3-0.5,0.6-1,1.2-1.4c0.5-0.4,1.4-0.8,2-0.7L75.1,1.7z"/>
	<path class="st8" d="M69.9,11.4c-0.4,0.3-1,0.4-1.5,0.3c-0.5-0.1-0.9-0.3-1.3-0.5c-0.8-0.4-1.3-1.1-1.9-1.7
		c-0.6-0.6-1.2-1.2-1.8-1.7c-0.6-0.5-1.5-1-2.6-0.3l0-0.1c0.5-0.4,1.2-0.6,1.7-0.6c0.5,0,1,0.2,1.4,0.4c0.8,0.4,1.5,1,2.1,1.5
		s1.4,1,1.9,1.6C68.4,10.8,68.9,11.4,69.9,11.4L69.9,11.4z"/>
	<path class="st8" d="M60.7,7.6c-0.8,1-0.7,1.9-0.6,2.9c0.1,0.9,0.2,1.9,0.4,2.8c0.2,0.9,0.5,1.9,0.7,2.8c0.1,0.5,0.2,1,0.2,1.5
		c0,0.5-0.1,1.1-0.5,1.5L60.8,19c0.5-0.9,0.1-1.8-0.2-2.6c-0.3-0.8-0.7-1.7-1-2.5c-0.3-0.9-0.7-1.7-0.7-2.8c0-0.6,0.1-1.2,0.3-1.8
		C59.5,8.5,60,7.8,60.7,7.6L60.7,7.6z"/>
	<path class="st8" d="M60.9,19c-0.2,0.5-0.7,1-1.2,1.2c-0.5,0.2-1,0.3-1.4,0.3c-0.9,0.1-1.7-0.3-2.5-0.5s-1.6-0.5-2.4-0.5
		c-0.8-0.1-1.8-0.1-2.4,1.2l-0.1-0.1c0.2-0.7,0.7-1.2,1.2-1.5c0.5-0.3,1-0.4,1.4-0.4c0.9-0.1,1.8,0,2.6,0.2c0.8,0.1,1.7,0.1,2.5,0.3
		C59.3,19.3,60,19.5,60.9,19L60.9,19z"/>
	<path class="st8" d="M50.9,20.6c-0.2,1.4,0.2,2.3,0.6,3.2c0.4,0.9,0.8,2,1.3,2.9s1.1,1.9,1.7,2.8c0.2,0.3,0.3,0.6,0.4,0.9
		c0.4,0.8,0.7,1.6,0.7,2.6l-0.1,0c0-0.5-0.2-0.9-0.4-1.3c0,0-0.2-0.5-0.6-1.1c0-0.1-0.1-0.2-0.1-0.2s-0.1-0.2-0.2-0.3
		c-0.6-0.8-1.2-1.6-1.9-2.4c-0.6-0.8-1.3-1.6-1.7-2.9c-0.1-0.3-0.2-0.6-0.2-1c-0.1-0.3-0.1-0.7-0.1-1.1C50.2,22,50.5,21.2,50.9,20.6
		L50.9,20.6z"/>
	<path class="st8" d="M71.3,2.1c-1.1,0.6-1.3,1.5-1.6,2.4c-0.2,0.9-0.6,1.8-0.7,2.7c-0.2,0.9-0.3,1.9-0.4,2.8
		c-0.1,0.5-0.2,0.9-0.4,1.4c-0.2,0.5-0.5,0.9-0.9,1.1l-0.1-0.1c0.8-0.6,0.8-1.6,0.8-2.4c0-0.9,0-1.8,0-2.7c0-0.9,0-1.8,0.4-2.9
		c0.2-0.5,0.5-1,1-1.5c0.4-0.5,1.3-0.9,1.9-1L71.3,2.1z"/>
	<path class="st8" d="M67.2,12.5c-0.4,0.4-1,0.6-1.5,0.5c-0.5,0-1-0.1-1.4-0.3c-0.9-0.3-1.5-0.9-2.1-1.4c-0.7-0.5-1.3-1-2-1.4
		c-0.7-0.4-1.6-0.8-2.6,0.1l-0.1-0.1c0.5-0.5,1.1-0.8,1.6-0.8c0.5,0,1,0.1,1.4,0.2c0.8,0.3,1.6,0.8,2.3,1.2c0.7,0.4,1.5,0.8,2.1,1.3
		C65.7,12.2,66.3,12.7,67.2,12.5L67.2,12.5z"/>
	<path class="st8" d="M57.6,10c-0.7,1.2-0.4,2-0.3,3c0.2,0.9,0.4,1.9,0.7,2.8c0.3,0.9,0.7,1.8,1,2.8c0.1,0.5,0.3,1,0.3,1.5
		c0.1,0.5,0,1.1-0.3,1.6l-0.1,0c0.4-1-0.1-1.9-0.5-2.7c-0.4-0.8-0.9-1.6-1.3-2.4c-0.4-0.8-0.9-1.6-1-2.8c0-0.6,0-1.2,0.1-1.9
		C56.5,11.1,57,10.3,57.6,10L57.6,10z"/>
	<path class="st8" d="M59.1,21.6c-0.1,0.6-0.6,1.1-1,1.4c-0.5,0.3-0.9,0.4-1.4,0.5c-0.9,0.2-1.8,0-2.6-0.1c-0.8-0.1-1.7-0.2-2.5-0.2
		c-0.8,0-1.8,0.2-2.2,1.5l-0.1,0c0.2-0.8,0.6-1.4,1-1.7c0.4-0.3,0.9-0.5,1.3-0.6c0.9-0.2,1.8-0.2,2.6-0.2c0.8,0,1.7-0.1,2.5,0
		C57.5,22.1,58.3,22.2,59.1,21.6L59.1,21.6z"/>
	<path class="st8" d="M49.4,24.6c0,1.2,0.5,1.8,1,2.5c0.3,0.4,0.6,0.9,0.9,1.3c0,0,0,0,0,0.1c0.2,0.2,0.4,0.5,0.6,0.7
		c1.2,1.3,2.5,2.3,3.7,3.8l0,0.1c-0.6-0.5-1.3-1-2-1.4c-0.7-0.4-1.3-0.9-2-1.4c-0.7-0.5-1.4-1-1.9-1.9c-0.2-0.5-0.5-1-0.6-1.8
		C48.9,26,49,25.1,49.4,24.6L49.4,24.6z"/>
</g>
<g>
	<path class="st8" d="M16.6,103.2c-0.1-1.3-0.7-2-1.2-2.7c-0.6-0.8-1.1-1.6-1.7-2.4c-0.5-0.8-1.1-1.7-1.4-2.8
		c-0.2-0.6-0.3-1.2-0.2-1.9c0-0.7,0.3-1.6,0.8-2.3l0.1,0.1c-0.9,1.5-0.6,2.8-0.2,3.7c0.4,0.9,0.9,1.7,1.5,2.5s1.2,1.4,1.7,2.3
		c0.2,0.5,0.5,1,0.7,1.6C16.8,101.8,16.9,102.6,16.6,103.2L16.6,103.2z"/>
	<path class="st8" d="M12.8,91.1c0.4-0.8,1.2-1.5,1.8-1.7c0.6-0.3,1.2-0.3,1.7-0.3c1,0,1.8,0.5,2.6,0.8c0.8,0.4,1.5,0.8,2.4,1.1
		c0.8,0.3,1.7,0.6,2.7,0l0,0.1c-0.5,0.3-1,0.5-1.5,0.5c-0.5,0-1-0.1-1.4-0.2c-0.9-0.2-1.8-0.5-2.6-0.7c-0.9-0.2-1.8-0.4-2.6-0.5
		C14.9,90.2,14,90,12.8,91.1L12.8,91.1z"/>
	<path class="st8" d="M24,91c0.8-0.8,0.7-1.7,0.8-2.5c0.1-0.9,0.2-1.8,0.4-2.8c0.2-0.9,0.4-1.9,0.8-2.9c0.2-0.5,0.6-1,1-1.5
		c0.5-0.5,1.2-0.9,2-1l0,0.1c-1.6,0.4-2.1,1.5-2.5,2.4c-0.3,0.9-0.5,1.8-0.5,2.7c-0.1,0.9,0,1.8-0.3,2.8c-0.1,0.5-0.3,1-0.5,1.5
		C25,90.3,24.5,90.8,24,91L24,91z"/>
	<path class="st8" d="M28.9,80.4c0.8-0.3,1.8-0.2,2.4,0.1c0.6,0.2,1.1,0.6,1.4,1c0.7,0.8,0.9,1.6,1.2,2.4c0.3,0.8,0.5,1.6,0.9,2.4
		c0.3,0.8,0.8,1.6,1.8,1.9l0,0.1c-0.5-0.1-1-0.3-1.4-0.7c-0.4-0.3-0.6-0.7-0.9-1.1c-0.5-0.8-0.9-1.6-1.3-2.3c-0.5-0.8-1-1.5-1.5-2.2
		C31,81.2,30.4,80.4,28.9,80.4L28.9,80.4z"/>
	<path class="st8" d="M17.8,99.5c0.2-1.2-0.3-1.9-0.7-2.8c-0.5-0.8-0.8-1.7-1.2-2.6c-0.4-0.9-0.7-1.8-0.9-2.9
		c-0.1-0.6-0.1-1.2,0.1-1.8c0.1-0.7,0.6-1.5,1.2-2l0,0.1c-1.1,1.2-1,2.5-0.8,3.4c0.2,1,0.6,1.8,1,2.7c0.4,0.8,0.9,1.6,1.3,2.6
		c0.2,0.5,0.3,1,0.4,1.6C18.2,98.3,18.1,99,17.8,99.5L17.8,99.5z"/>
	<path class="st8" d="M16.2,87.5c0.5-0.7,1.4-1.2,2.1-1.3c0.7-0.2,1.2-0.1,1.8,0c1,0.2,1.7,0.8,2.4,1.3c0.7,0.5,1.4,1.1,2.1,1.5
		c0.7,0.4,1.5,0.9,2.6,0.6l0,0.1c-0.5,0.2-1.1,0.3-1.6,0.2c-0.5-0.1-0.9-0.3-1.4-0.4c-0.8-0.4-1.6-0.8-2.4-1.2
		c-0.8-0.4-1.6-0.7-2.5-1C18.4,86.9,17.5,86.6,16.2,87.5L16.2,87.5z"/>
	<path class="st8" d="M27,89.6c0.9-0.6,1-1.5,1.2-2.3c0.2-0.9,0.5-1.8,0.9-2.6c0.3-0.9,0.7-1.8,1.3-2.7c0.3-0.4,0.7-0.9,1.3-1.2
		c0.5-0.4,1.3-0.7,2.2-0.6l0,0.1c-1.6,0.1-2.4,1.1-2.8,1.9c-0.5,0.8-0.8,1.7-1,2.6c-0.2,0.9-0.4,1.8-0.8,2.7
		c-0.2,0.4-0.4,0.9-0.8,1.4C28.1,89.1,27.5,89.6,27,89.6L27,89.6z"/>
	<path class="st8" d="M33.6,80.1c0.8-0.1,1.7,0.1,2.3,0.5c0.6,0.4,0.9,0.8,1.2,1.2c0.5,0.9,0.6,1.7,0.7,2.6c0.1,0.8,0.2,1.7,0.4,2.5
		c0.2,0.8,0.4,1.8,1.4,2.2l0,0.1c-0.5-0.2-1-0.6-1.2-0.9c-0.3-0.4-0.5-0.8-0.6-1.3c-0.3-0.9-0.5-1.7-0.8-2.6c-0.3-0.8-0.6-1.6-1-2.4
		C35.5,81.3,35.1,80.4,33.6,80.1L33.6,80.1z"/>
	<path class="st8" d="M39.6,89.2c0.9,0.1,1.4-0.2,2.1-0.6c0.6-0.3,1.3-0.7,2-1c1.4-0.6,2.9-1.3,4.9-1.2l0.1,0.1
		c-0.9,0-1.7,0.3-2.3,0.6c-0.7,0.3-1.4,0.7-2,1.1c-0.7,0.4-1.3,0.8-2.1,1.1c-0.4,0.1-0.8,0.2-1.3,0.3C40.5,89.6,40,89.5,39.6,89.2
		L39.6,89.2z"/>
	<path class="st8" d="M36.6,88.1c1-0.1,1.7-0.5,2.5-1c0.8-0.4,1.7-0.8,2.6-1.2s1.9-0.7,3.1-0.7c1.1-0.1,2.7,0.1,3.9,1.2l0,0.1
		c-1.3-0.9-2.5-1-3.5-0.8c-1,0.1-2,0.5-2.8,0.9c-0.9,0.4-1.6,0.9-2.6,1.3c-0.2,0.1-0.5,0.2-0.7,0.2c-0.2,0.1-0.5,0.2-0.8,0.2
		C37.7,88.4,37.1,88.4,36.6,88.1L36.6,88.1z"/>
</g>
<path class="st9" d="M51.9,28.6"/>
<path class="st2" d="M51.4,28.8"/>
<path class="st2" d="M52.5,27.4"/>
<path class="st10" d="M51.6,29.5c0.1,0.1,0.2,0.3,0.3,0.4c0.1,0.1,0.2,0.2,0.4,0.3"/>
<path d="M117.1,8.2"/>
<path class="st11" d="M69.8,64.2c-0.9,0.1-1.5,0.4-1.6,1"/>
<path class="st11" d="M67.9,61.1"/>
<g>
	<g>
		<path class="st8" d="M100.5,65.4c0.3-1.3,0.6-2.6,0.9-3.9c-0.3,0-0.6,0.1-0.9,0.1c0.4,1.1,0.6,2.3,0.6,3.5c0,0.4,0.6,0.5,0.9,0.2
			c0.6-0.7,0.8-1.7,0.8-2.6c-0.3,0-0.6,0.1-0.9,0.1c0.6,1,1,2.2,1.2,3.3c0.1,0.6,0.9,0.5,1,0c0.2-0.8,0.3-1.7,0.5-2.5
			c0.1-0.3-0.2-0.5-0.4-0.6c-0.3,0-0.5,0.2-0.6,0.4c-0.2,0.8-0.3,1.7-0.5,2.5c0.3,0,0.7,0,1,0c-0.2-1.2-0.6-2.5-1.2-3.6
			c-0.1-0.2-0.3-0.3-0.5-0.3c-0.2,0-0.4,0.2-0.4,0.4c0,0.7-0.1,1.5-0.6,2.1c0.3,0.1,0.6,0.2,0.9,0.2c-0.1-1.3-0.3-2.6-0.7-3.8
			c-0.1-0.2-0.3-0.3-0.5-0.3c-0.2,0-0.4,0.2-0.4,0.4c-0.3,1.3-0.6,2.6-0.9,3.9c-0.1,0.3,0.2,0.5,0.4,0.6
			C100.3,65.8,100.5,65.6,100.5,65.4L100.5,65.4z"/>
	</g>
</g>
<g>
	<g>
		<path class="st8" d="M121.4,66.9c0.6,1.3,1.1,2.7,1.3,4.1c0.1,0.7,1,0.5,1-0.2c-0.5-12.6-0.9-25.2-0.8-37.8c0-3.5,0.1-7,0.3-10.5
			c-0.3,0-0.7,0-1,0c0.3,5.6,0.4,11.2,0.2,16.8c-0.2,5.9-0.2,11.8,0.2,17.7c0.2,3.3,0.5,6.6,0.9,9.9c0.1,0.6,0.8,0.5,1,0
			c0.2-0.7,0.3-1.5,0.5-2.2c0.1-0.6-0.8-0.7-1-0.1c-0.2,0.7-0.3,1.5-0.5,2.2c0.3,0,0.7,0,1,0c-0.7-5.9-1.1-11.8-1.2-17.7
			c-0.1-5.8,0.3-11.5,0.2-17.3c0-3.1-0.2-6.3-0.3-9.4c0-0.6-0.9-0.5-1,0c-0.5,12.6-0.3,25.3,0.1,38c0.1,3.5,0.2,7.1,0.4,10.7
			c0.3-0.1,0.7-0.1,1-0.2c-0.3-1.5-0.8-2.9-1.4-4.4C122,65.9,121.1,66.3,121.4,66.9L121.4,66.9z"/>
	</g>
</g>
<g>
	<g>
		<path class="st8" d="M103.9,63.9c0.4,0.2,0.9,0.6,1.2,1c0.2,0.4,0.4,1,0.5,1.5c0.3,1.1,0.6,2.2,0.6,3.3c0.3,0,0.7,0.1,1,0.1
			c0-6.5,0-13,0.1-19.4c0.1-6.3,0.3-12.6,0.2-18.9c0-3.3-0.4-6.6,0-9.9c-0.3,0-0.7-0.1-1-0.1c-0.7,12.1-0.6,24.3-0.5,36.5
			c0,1.5-0.1,3,0.3,4.5c0.3,1.3,0.8,2.5,1.4,3.6c0.3,0.6,1.2,0.2,0.9-0.4c-0.5-1-0.9-2.1-1.2-3.2c-0.4-1.3-0.3-2.7-0.4-4.1
			c0-3,0-6-0.1-8.9c0-5.9,0-11.9,0.1-17.8c0.1-3.4,0.2-6.7,0.4-10.1c0-0.6-0.9-0.8-1-0.1c-0.3,2.9-0.1,5.7,0,8.6
			c0.1,3.2,0,6.3-0.1,9.5c-0.1,6.4-0.2,12.8-0.3,19.2c0,3.7-0.1,7.3,0,10.9c0,0.6,1,0.8,1,0.1c0-1.4-0.3-2.7-0.7-4.1
			c-0.2-0.6-0.3-1.3-0.7-1.7c-0.4-0.4-0.9-0.8-1.4-1.1C103.7,62.7,103.3,63.6,103.9,63.9L103.9,63.9z"/>
	</g>
</g>
<g>
	<g>
		<path class="st8" d="M78.6,68.9c0.5-0.2,0.7-0.5,0.8-1c0.2-0.7,0.3-1.5,0.5-2.2c0.4-1.3,0.9-2.5,1.7-3.6c-0.3,0-0.6-0.1-0.8-0.1
			c0.4,1,0.2,2.2,0.4,3.3c0.1,0.5,0.3,1.3,0.8,1.5c0.5,0.2,1-0.1,1.3-0.6c0.2-0.3,0.3-0.6,0.5-1c0.1-0.1,0.4-0.6,0.3-0.7
			c0.1,0,0.1,0.3,0.1,0.4c0.2,0.4,0.3,1.1,0.8,1.3c0.2,0.1,0.5,0.1,0.7-0.1c0.4-0.3,0.2-0.6,0.2-0.9c0-0.1,0-0.2,0.1-0.3
			c-0.2-0.1-0.3,0-0.2,0.1c0,0,0.1,0.2,0.1,0.3c0.1,0.3,0.2,0.7,0.4,1c0.2,0.5,0.5,1.1,1.1,1.1c0.3,0,0.6-0.2,0.6-0.6
			c0-0.8,0.1-1.6,0.5-2.3c-0.3,0-0.6,0-0.9,0c0.1,0.5,0.3,1,0.4,1.4c0.1,0.5,0.9,0.3,0.9-0.1c0.3-2,0.7-4,1-6c-0.3,0-0.7,0-1,0
			c0.3,1.4,0.6,2.9,0.9,4.3c0.1,0.4,0.8,0.6,0.9,0.1c0.1-0.3,0.2-0.6,0.3-0.9c-0.3,0-0.6-0.1-0.9-0.1c0.1,0.7,0.3,1.4,0.8,2
			c0.3,0.4,0.9,0.1,0.9-0.4c-0.1-0.4-0.1-1,0.2-1.4c0.2-0.4,0.3,0,0.4,0.3c0.2,0.5,0.8,0.3,0.9-0.1c0.2-0.7,0.1-1.3,0.2-2
			c0-0.1,0.3-0.7,0.3-0.7c0,0-0.5,0.1-0.4,0c0,0,0.1,0.1,0.1,0.2c0.1,0.2,0.2,0.5,0.2,0.8c0.3,1.2,0.4,2.4,0.6,3.7
			c0.1,0.5,0.8,0.6,0.9,0.1c0.3-0.9,0.6-1.8,0.8-2.7c-0.3,0.1-0.5,0.2-0.8,0.3c0.4,0.4,0.4,1.3,0.5,1.8c0.1,0.6,0.3,1.1,0.7,1.6
			c0.6,1.1,1.4,1.9,1.4,3.2c0,0.7,1,0.5,1-0.2c-0.2-6.3,0.1-12.6,0.3-19c0.2-3.1,0.3-6.2,0.5-9.3c0-0.7,0.1-1.4,0.1-2.1
			c-0.1-0.8-0.2-1.6-0.2-2.3c-0.1-1.6-0.2-3.1-0.2-4.7c-0.1-3.6,0-7.2,0.1-10.7c-0.3,0-0.7-0.1-1-0.1c-0.2,5.9-0.2,11.9-0.2,17.8
			c0,3,0,5.9,0,8.9c0,2.8-0.1,5.6,0,8.3c0.1,3,0.4,5.8,1.4,8.6c0.2,0.6,1.1,0.2,0.9-0.4c-1.7-5.1-1.3-10.6-1.3-15.9
			c0-5.8,0-11.6,0-17.4c0-3.3,0.1-6.6,0.2-9.9c0-0.6-0.9-0.8-1-0.1c-0.2,3.1-0.2,6.3-0.2,9.4c0,1.6,0.1,3.1,0.2,4.7
			c0.1,1.6,0.4,3.2,0.3,4.8c-0.3,6.3-0.7,12.6-0.8,18.9c-0.1,3.5-0.1,7,0,10.6c0.3-0.1,0.7-0.1,1-0.2c-0.1-1.4-0.8-2.4-1.5-3.5
			c-0.4-0.6-0.5-1.3-0.7-2c-0.1-0.6-0.2-1.3-0.7-1.8c-0.3-0.3-0.7,0-0.8,0.3c-0.2,0.8-0.5,1.6-0.8,2.4c0.3,0,0.6,0.1,0.9,0.1
			c-0.3-1.5-0.3-3.2-0.9-4.7c-0.2-0.5-0.7-1-1.2-0.6c-0.9,0.7-0.5,2.3-0.8,3.3c0.3,0,0.6-0.1,0.9-0.1c-0.2-0.7-0.9-1.4-1.7-0.9
			c-0.8,0.5-0.9,1.7-0.8,2.6c0.3-0.1,0.6-0.3,0.9-0.4c-0.3-0.5-0.5-1-0.6-1.5c-0.1-0.5-0.8-0.6-0.9-0.1c-0.1,0.3-0.2,0.6-0.3,0.9
			c0.3,0,0.6,0.1,0.9,0.1c-0.3-1.4-0.6-2.9-0.9-4.3c-0.1-0.5-0.9-0.5-1,0c-0.3,2-0.7,4-1,6c0.3-0.1,0.6-0.1,0.9-0.1
			c-0.1-0.5-0.3-1-0.4-1.4c-0.1-0.5-0.7-0.3-0.9,0c-0.4,0.9-0.6,1.8-0.5,2.8c0.2-0.2,0.4-0.4,0.6-0.6c-0.2,0-0.4-0.8-0.5-1
			c-0.1-0.4-0.3-0.9-0.6-1.2c-1-0.9-1.7,0.8-1.4,1.6c0-0.2,0-0.3,0.1-0.5c-0.2,0.2,0.3,0.1,0.3,0.1c0,0-0.1-0.1-0.1-0.2
			c0-0.2-0.1-0.3-0.2-0.5c-0.1-0.3-0.2-0.6-0.3-0.8c-0.8-0.9-1.6,0.2-1.9,0.9c-0.1,0.3-0.2,0.8-0.5,1c0.1-0.1,0.1,0.1,0-0.1
			c-0.1-0.2-0.2-0.4-0.2-0.6c-0.2-1.2,0-2.5-0.4-3.7c-0.1-0.3-0.6-0.4-0.8-0.1c-0.6,0.9-1.1,1.9-1.5,2.9c-0.2,0.6-0.4,1.1-0.5,1.7
			c-0.1,0.2-0.3,1.8-0.4,1.8C77.9,68.1,78,69.1,78.6,68.9L78.6,68.9z"/>
	</g>
</g>
<g>
	<g>
		<path class="st9" d="M69.6,62.9c0.1,0,0.1,0,0.2,0C69.7,62.9,69.7,62.9,69.6,62.9c0.1,0,0.2,0.1,0.3,0.1c0,0-0.1,0-0.1-0.1
			c0.4,0.3,0.7,0.7,1.2,1c0.2,0.1,0.5,0.1,0.7-0.1c0.2-0.2,0.1-0.5-0.1-0.7c-0.3-0.2-0.5-0.5-0.8-0.7c-0.3-0.3-0.7-0.5-1.1-0.5
			c-0.3,0-0.5,0.2-0.6,0.4C69.1,62.6,69.3,62.8,69.6,62.9L69.6,62.9z"/>
	</g>
</g>
<g>
	<g>
		<path class="st8" d="M69.8,62.8c0.6,0,1.1,0.4,1.6,0.8c0.6,0.5,1.1,1,1.7,1.5c1.1,1,2.2,2.1,3.4,3.1c0.5,0.4,1-0.4,0.6-0.8
			c-1.2-1.1-2.4-2.2-3.6-3.3c-0.6-0.5-1.1-1-1.7-1.5c-0.5-0.4-1.1-0.8-1.8-0.9C69.3,61.8,69.2,62.8,69.8,62.8L69.8,62.8z"/>
	</g>
</g>
<g>
	<g>
		<path class="st8" d="M68.9,64.9c0.9-0.3,1.9-0.3,2.8,0c0.9,0.3,1.7,0.9,2.3,1.6c0.7,0.6,1.3,1.3,2.1,1.7c0.8,0.4,1.7,0.9,2.6,0.6
			c0.5-0.2,0.2-1.1-0.3-0.9c-0.5,0.2-1.1-0.2-1.5-0.4c-0.4-0.2-0.8-0.4-1.2-0.8c-0.7-0.6-1.3-1.3-2.1-1.9c-1.5-1.2-3.4-1.5-5.2-0.8
			C68.1,64.2,68.4,65.1,68.9,64.9L68.9,64.9z"/>
	</g>
</g>
<g>
	<g>
		<path class="st8" d="M70.4,64.2c0.6,0,1.1,0.1,1.5,0.5c0.5,0.4,1-0.5,0.5-0.8c-0.6-0.5-1.3-0.6-2.1-0.6c-0.4,0-0.8,0-1.2,0
			c-0.4,0-0.7,0.3-1,0.6c-0.1,0.1-0.2,0.2-0.4,0.3c-0.2,0.1-0.3,0.1-0.5,0.2c-0.4,0.2-0.6,0.6-0.5,1.1c0.1,0.3,0.4,0.6,0.7,0.7
			c0.4,0.1,0.7-0.2,0.9-0.5c0.1-0.1,0.1-0.2,0.2-0.3c0-0.1,0-0.2,0.1-0.3c0,0,0,0,0.1,0c0.1,0,0.2-0.1,0.3-0.1
			c0.4-0.2,0.8-0.4,1.1-0.7c0.4-0.4-0.1-1.2-0.5-0.8c-0.3,0.2-0.6,0.5-0.9,0.6c-0.4,0.2-0.7,0.2-0.8,0.7c-0.1,0.2-0.1,0.4-0.3,0.5
			c0,0-0.1,0,0,0c0,0.1,0,0.2,0,0.2c-0.1,0.1,0,0.1,0,0c0.2,0,0.3-0.1,0.5-0.2c0.3-0.2,0.5-0.5,0.8-0.7c0.3-0.2,0.7-0.1,1-0.1
			c0.7,0,1.4,0,2,0.4c0.2-0.3,0.4-0.5,0.5-0.8c-0.6-0.4-1.2-0.7-1.9-0.7c-0.3,0-0.5,0.2-0.5,0.4C70,63.9,70.2,64.3,70.4,64.2
			L70.4,64.2z"/>
	</g>
</g>
<line class="st10" x1="14" y1="97.8" x2="16.8" y2="95.7"/>
<g>
	<path class="st9" d="M1.9,47.9"/>
</g>
<g>
	<path class="st10" d="M10.1,51.8"/>
</g>
<g>
	<g>
		<g>
			<path class="st8" d="M0.3,56.2c1.3-0.8,1.9-1.9,2.7-2.9c0.8-1.1,1.6-2.1,2.5-3.2c0.9-1,1.9-2.1,3-3c0.6-0.5,1.3-0.9,2-1.3
				c0.7-0.4,1.7-0.6,2.4-0.5c0,0,0,0-0.1,0.1c-1.5,0-2.9,1-3.9,1.9c-1,0.9-1.9,1.9-2.7,2.9c-0.8,1-1.5,2.1-2.4,3.2
				c-0.5,0.5-1,1.1-1.6,1.7C1.7,55.6,0.9,56.2,0.3,56.2C0.2,56.3,0.2,56.2,0.3,56.2z"/>
		</g>
		<g>
			<path class="st8" d="M12.8,45.3c0.8-0.1,1.5,0.2,1.8,0.6c0.3,0.4,0.4,0.8,0.4,1.3c0.1,0.9-0.3,1.8-0.5,2.7
				c-0.2,0.9-0.4,1.8-0.4,2.6c0,0.8,0.1,1.8,1.2,2c0,0,0,0,0,0.1c-0.6-0.1-1.1-0.4-1.3-0.8c-0.2-0.4-0.4-0.8-0.4-1.2
				c-0.1-0.9-0.1-1.7,0-2.6c0-0.8,0.1-1.7,0.2-2.6C13.8,46.6,14,45.8,12.8,45.3C12.8,45.4,12.8,45.4,12.8,45.3z"/>
		</g>
		<g>
			<path class="st8" d="M15.3,54.5c1.2-0.1,2-0.7,2.9-1.3c0.9-0.6,1.9-1.2,2.9-1.7c1-0.5,2.1-1.1,3.3-1.5c0.6-0.2,1.3-0.3,2-0.3
				c0.7,0,1.5,0.1,2,0.5c0,0,0,0-0.1,0c-1.2-0.6-2.6-0.2-3.7,0.2c-1.1,0.4-2.1,1-3,1.5c-1,0.6-1.8,1.3-2.9,1.8
				c-0.5,0.3-1.1,0.6-1.7,0.8C16.5,54.7,15.8,54.8,15.3,54.5C15.3,54.6,15.3,54.5,15.3,54.5z"/>
		</g>
		<g>
			<path class="st8" d="M28.5,50.1c0.7,0.3,1.1,0.8,1.1,1.3c0.1,0.5,0,0.9-0.1,1.3c-0.3,0.8-0.9,1.5-1.4,2.3s-1,1.5-1.3,2.2
				c-0.3,0.7-0.6,1.7,0.1,2.3c0,0,0,0-0.1,0c-0.4-0.3-0.6-0.8-0.6-1.2c0-0.4,0-0.9,0.1-1.3c0.2-0.8,0.6-1.6,1-2.4
				c0.4-0.8,0.7-1.5,1.1-2.3C28.7,51.7,29.1,50.9,28.5,50.1C28.4,50.1,28.4,50.1,28.5,50.1z"/>
		</g>
		<g>
			<path class="st8" d="M26.9,59.5c0.9,0.4,1.7,0.3,2.6,0.2c0.9-0.1,1.9-0.1,2.8,0c1,0,2,0.1,3,0.4c1,0.3,2.2,0.8,2.7,1.8
				c0,0,0,0-0.1,0c-0.6-0.9-1.7-1.2-2.6-1.4c-1-0.2-2-0.2-2.9-0.2c-1,0-1.9,0.2-2.9,0.2c-0.2,0-0.5,0-0.7,0c-0.2,0-0.5-0.1-0.8-0.1
				C27.6,60.2,27.1,59.9,26.9,59.5C26.8,59.6,26.9,59.5,26.9,59.5z"/>
		</g>
		<g>
			<path class="st8" d="M4.1,55.3c1.3-0.6,2-1.6,2.8-2.5c0.8-1,1.7-1.9,2.6-2.8c0.9-0.9,1.9-1.8,3.1-2.6c0.6-0.4,1.3-0.8,2-1
				c0.7-0.3,1.6-0.4,2.3-0.3c0,0,0,0-0.1,0.1c-1.5-0.2-2.9,0.7-3.9,1.4c-1.1,0.8-1.9,1.7-2.8,2.6c-0.8,0.9-1.6,1.9-2.5,2.9
				c-0.5,0.5-1,1-1.7,1.4C5.5,54.9,4.7,55.4,4.1,55.3C4,55.4,4.1,55.3,4.1,55.3z"/>
		</g>
		<g>
			<path class="st8" d="M16.9,46.1c0.8,0,1.4,0.4,1.7,0.8c0.3,0.4,0.3,0.9,0.3,1.3c0,0.9-0.5,1.8-0.7,2.6c-0.3,0.8-0.5,1.7-0.6,2.5
				c-0.1,0.8-0.1,1.8,0.9,2.1c0,0,0,0,0,0.1c-0.5-0.1-1-0.5-1.1-0.9c-0.2-0.4-0.3-0.8-0.3-1.3c0-0.9,0.1-1.7,0.2-2.6
				c0.1-0.8,0.2-1.7,0.4-2.5C17.7,47.5,17.9,46.6,16.9,46.1C16.8,46.1,16.9,46.1,16.9,46.1z"/>
		</g>
		<g>
			<path class="st8" d="M18.4,55.5c1.1,0.1,2-0.5,2.9-1c0.9-0.5,1.9-1,2.9-1.4c1-0.5,2.1-0.9,3.3-1.1c0.6-0.1,1.2-0.2,1.9-0.2
				c0.7,0,1.4,0.3,1.9,0.7c0,0,0,0-0.1,0c-1.1-0.7-2.5-0.5-3.5-0.2c-1.1,0.3-2.1,0.8-3,1.3c-1,0.5-1.8,1.1-2.9,1.5
				c-0.5,0.2-1.1,0.5-1.7,0.6C19.6,55.8,18.9,55.8,18.4,55.5C18.4,55.5,18.4,55.5,18.4,55.5z"/>
		</g>
		<g>
			<path class="st8" d="M31.3,52.3c0.6,0.3,0.9,0.9,0.9,1.4c0,0.5-0.1,0.9-0.3,1.3c-0.4,0.8-1,1.4-1.6,2.1c-0.5,0.7-1.1,1.4-1.5,2.1
				c-0.4,0.7-0.7,1.6-0.1,2.3c0,0,0,0-0.1,0c-0.3-0.3-0.5-0.8-0.5-1.2c0-0.4,0.1-0.9,0.3-1.3c0.3-0.8,0.7-1.6,1.2-2.3
				c0.4-0.7,0.8-1.5,1.3-2.2C31.3,53.9,31.8,53.2,31.3,52.3C31.2,52.4,31.2,52.4,31.3,52.3z"/>
		</g>
		<g>
			<path class="st8" d="M28.7,61.6c0.7,0.3,1.3,0.2,2,0.2c0.7-0.1,1.5-0.2,2.2-0.2c1.5-0.1,3.2-0.2,5,0.4c0,0,0,0,0,0.1
				c-0.8-0.2-1.7-0.2-2.5-0.1c-0.8,0.1-1.6,0.2-2.3,0.3c-0.8,0.1-1.5,0.4-2.3,0.4c-0.4,0-0.8,0-1.2-0.2C29.3,62.2,28.9,62,28.7,61.6
				C28.7,61.6,28.7,61.6,28.7,61.6z"/>
		</g>
	</g>
</g>
<g>
	<g>
		<g>
			<path class="st8" d="M122.2,66.1c-0.3-0.7-0.9-2.5-2-1.8c-0.3,0.2-0.4,0.5-0.5,0.8c-0.1,0.2-0.1,0.4-0.2,0.6
				c0,0.1-0.1,0.2-0.1,0.2c0,0.1,0.5,0.2,0.3-0.1c0,0.2,0,0.3,0.1,0.5c0.3-0.8-0.4-2.5-1.4-1.6c-0.3,0.3-0.5,0.8-0.6,1.2
				c-0.1,0.2-0.3,1-0.5,1c0.2,0.2,0.4,0.4,0.6,0.6c0-1-0.1-1.9-0.5-2.8c-0.2-0.3-0.8-0.4-0.9,0c-0.1,0.5-0.3,1-0.4,1.4
				c0.3,0,0.6,0.1,0.9,0.1c-0.3-2-0.7-4-1-6c-0.1-0.6-0.9-0.5-1,0c-0.3,1.4-0.6,2.9-0.9,4.3c0.3-0.1,0.6-0.1,0.9-0.1
				c-0.1-0.3-0.2-0.6-0.3-0.9c-0.2-0.5-0.9-0.3-0.9,0.1c-0.1,0.5-0.2,1.1-0.6,1.5c0.3,0.1,0.6,0.2,0.9,0.4c0.1-0.8,0-2-0.8-2.5
				s-1.4,0.2-1.7,0.9c0.3,0,0.6,0.1,0.9,0.1c-0.2-0.9,0.1-2.6-0.8-3.3c-0.6-0.5-1,0.1-1.2,0.6c-0.6,1.5-0.6,3.1-0.9,4.7
				c0.3-0.1,0.6-0.1,0.9-0.1c-0.3-0.8-0.6-1.6-0.8-2.4c-0.1-0.3-0.5-0.6-0.8-0.3c-0.7,0.7-0.7,1.8-0.9,2.7c-0.2,0.6,0.8,0.7,1,0.1
				c0.1-0.5,0.1-1.6,0.5-2c-0.3-0.1-0.5-0.2-0.8-0.3c0.2,0.9,0.5,1.8,0.8,2.6c0.2,0.5,0.8,0.3,0.9-0.1c0.2-1.2,0.3-2.5,0.6-3.7
				c0.1-0.2,0.1-0.5,0.2-0.8c0,0,0.1-0.2,0.1-0.2c0-0.1,0,0,0,0c0,0-0.5,0.1-0.4,0c0,0,0.2,0.5,0.2,0.6c0.1,0.7,0.1,1.4,0.2,2
				c0.1,0.4,0.8,0.6,0.9,0.1c0.1-0.3,0.2-0.6,0.4-0.3c0.3,0.4,0.2,1,0.2,1.4c-0.1,0.5,0.6,0.8,0.9,0.4c0.4-0.6,0.6-1.3,0.8-2
				c-0.3,0-0.6,0.1-0.9,0.1c0.1,0.3,0.2,0.6,0.3,0.9c0.2,0.5,0.8,0.3,0.9-0.1c0.3-1.4,0.6-2.9,0.9-4.3c-0.3,0-0.7,0-1,0
				c0.3,2,0.7,4,1,6c0.1,0.4,0.8,0.6,0.9,0.1c0.1-0.5,0.3-1,0.4-1.4c-0.3,0-0.6,0-0.9,0c0.3,0.7,0.5,1.5,0.5,2.3
				c0,0.3,0.2,0.6,0.6,0.6c0.7,0,1-0.9,1.2-1.4c0-0.1,0.4-0.9,0.4-1c0.1-0.1,0-0.1-0.2,0c0,0.1,0.1,0.1,0.1,0.1c0,0.1,0,0.2,0,0.3
				c0,0.2,0,0.4,0.1,0.6c0.5,0.6,1.1,0.2,1.3-0.4c0.1-0.3,0.2-0.8,0.4-1c0.1-0.1,0,0,0,0c0,0,0.2,0.4,0.2,0.4
				c0.1,0.3,0.2,0.6,0.4,0.8C121.5,67.1,122.4,66.7,122.2,66.1L122.2,66.1z"/>
		</g>
	</g>
</g>
<g>
	<g>
		<path class="st8" d="M130.1,63.2c-0.1,0.2-0.1,0.5-0.1,0.7c0.3,0,0.6-0.1,0.9-0.1c-0.1-0.3-0.2-0.6-0.3-0.9
			c-0.2-0.5-0.9-0.3-0.9,0.1c-0.1,0.5-0.2,1.1-0.6,1.6c0.3,0.1,0.6,0.2,0.9,0.4c0.1-0.8,0-2-0.7-2.5c-0.3-0.2-0.7-0.3-1-0.1
			c-0.4,0.2-0.6,0.6-0.8,1c0.3,0,0.6,0.1,0.9,0.1c-0.2-1,0-2-0.5-2.9c-0.2-0.5-0.8-0.8-1.2-0.3c-0.3,0.4-0.4,1-0.5,1.4
			c-0.2,0.7-0.3,1.3-0.4,2c-0.1,0.6-0.2,1.2-0.3,1.8c0.3-0.1,0.6-0.1,0.9-0.1c-0.3-0.8-0.6-1.6-0.8-2.4c-0.1-0.3-0.5-0.6-0.8-0.3
			c-0.7,0.6-0.7,1.8-0.9,2.7c-0.1,0.3,0.2,0.5,0.4,0.6c0.3,0,0.5-0.2,0.6-0.4c0.1-0.4,0.2-0.8,0.2-1.2c0.1-0.2,0.1-0.6,0.3-0.8
			c-0.3-0.1-0.5-0.2-0.8-0.3c0.2,0.9,0.5,1.8,0.8,2.7c0.2,0.5,0.8,0.3,0.9-0.1c0.2-1,0.3-2,0.5-3c0.1-0.3,0.1-0.5,0.2-0.8
			c0-0.1,0,0.1,0,0c0,0,0,0,0-0.1c0-0.1,0-0.1,0.1-0.2c0-0.1,0.1-0.2,0.1-0.3c0,0,0-0.1,0.1-0.1c0,0,0.1-0.1,0,0c-0.1,0.1,0,0,0,0
			c0-0.1-0.1,0.1,0,0c-0.1,0.1-0.2,0.1-0.3,0c0,0-0.1-0.1-0.1-0.1c0,0,0.1,0.1,0.1,0.1c0-0.1,0,0.1,0.1,0.1c0,0.1,0,0.1,0.1,0.2
			c0.1,0.2,0.1,0.3,0.1,0.5c0.1,0.6,0,1.2,0.2,1.9c0.1,0.2,0.2,0.4,0.4,0.4c0.2,0,0.4-0.1,0.5-0.3c0-0.1,0.1-0.3,0.2-0.4
			c0,0,0.1-0.1,0.1-0.1c0,0,0.1,0,0,0c0.1,0,0.1,0,0,0c0,0,0,0,0,0c0,0-0.1,0-0.1,0c0,0,0,0,0,0c0,0,0.1,0,0.1,0.1
			c0.3,0.4,0.3,1,0.2,1.5c-0.1,0.5,0.6,0.8,0.9,0.4c0.4-0.6,0.6-1.3,0.8-2c-0.3,0-0.6,0.1-0.9,0.1c0.1,0.3,0.2,0.6,0.3,0.9
			c0.2,0.5,0.9,0.3,0.9-0.1c0.1-0.2,0.1-0.5,0.1-0.7C131.2,62.7,130.2,62.6,130.1,63.2L130.1,63.2z"/>
	</g>
</g>
<g>
	<g>
		<path class="st2" d="M39,60.8c-0.4,0.3,0,0.3,0.1,0.4c1.4,3,2.2,6.2,4.3,8.8c2.4,2.8,7.8,3.4,9.1,7c0.1,0.3,2.4-1.5,4-1.8
			c2.5-0.5,5-1.1,7-2.7c1.6-1.3,1.5-3.2,3.3-6.2c0.8-1.3,4.4-3,4.2-3c-1.6-0.6-2.9-3.5-3.3-4.4c-1-2.2-0.1-1.9-1.7-4
			c-0.2-0.3-2.1-3.7-2.4-4.1c-2.1-3-5.8-3.5-7.7-6.6c-0.2-0.3-0.5-1.8-0.8-1.9c-0.3,0-0.5,1.4-0.8,1.6c-1.6,1.5-2,1.1-3.6,2.5
			c0,0-5.5,3-7.6,5.5C40,55.2,39.7,60.3,39,60.8z"/>
		<g>
			<path class="st8" d="M39,59.6c-0.4,0.4-0.2,1.5-0.2,2.1c0,0.8,0.3,0.9,0.6,1.6c1,2.2,1.7,4.6,3,6.7c1.1,1.7,2.6,2.8,4.4,3.8
				c1.6,0.8,3.3,1.6,4.6,2.9c0.3,0.3,0.8,1.6,1.1,1.7c0.4,0.1,1.6-0.8,1.9-1c2-1.1,4.4-1.2,6.5-2c2.1-0.8,3.3-2,4.1-4
				c0.8-1.9,1.4-3.7,3.1-4.9c0.7-0.5,2.5-1.1,2.7-1.9c0.1-0.4,0.2-1.8,0-2.2c-0.1-0.2-0.4-0.3-0.6-0.4c-0.4-0.3-0.8-0.7-1.1-1.1
				c-1-1.3-1.8-2.9-2.2-4.5c-0.3-1.3-1-2.2-1.7-3.3c-0.6-1.1-1.2-2.2-1.9-3.3c-1.2-1.8-3.2-2.8-4.9-3.9c-0.9-0.6-1.7-1.3-2.3-2.1
				c-0.5-0.7-0.5-1.4-1-2.1c-0.5-0.8-0.6,0.2-0.8,0.7c-0.3,0.8-1.1,1.3-1.8,1.7c-1.2,0.7-2.2,1.4-3.4,2.1c-1.7,1-3.5,2.2-5,3.5
				c-1.8,1.5-2.9,3.5-3.6,5.8c-0.3,0.9-0.6,1.9-0.8,2.8C39.5,58.5,39.3,59.2,39,59.6c-0.1,0.1,0,1.1,0,1.2s0.2,1.1,0,1.2
				c0.3-0.3,0.5-0.9,0.6-1.3c0.3-0.9,0.5-1.8,0.8-2.7c0.7-2.1,1.6-4.1,3.2-5.6c1.5-1.4,3.2-2.5,4.9-3.6c1.1-0.7,2.1-1.4,3.2-2
				c0.7-0.5,1.5-0.8,2.2-1.4c0.4-0.4,0.5-0.6,0.6-1.1c0.1-0.2,0.2-0.8,0.5-0.8c0.4,0,0.6,1.5,0.8,1.8c0.5,1,1.4,1.8,2.3,2.4
				c1.8,1.4,4,2.3,5.4,4.2c0.8,1.1,1.4,2.4,2.1,3.6c0.4,0.7,1,1.3,1.3,2c0.3,0.7,0.4,1.5,0.7,2.3c0.4,0.9,0.8,1.8,1.3,2.7
				c0.3,0.5,0.6,0.9,1,1.3c0.1,0.1,1.1,0.8,1.2,0.8c0-0.8,0-1.7,0-2.5c-0.7,0.6-1.7,1-2.5,1.5c-1.4,1-2.1,2.1-2.8,3.7
				C65,68.6,64.6,70,63.6,71c-1.3,1.4-3.4,2-5.2,2.5c-1.7,0.4-3.1,0.7-4.6,1.6c-0.2,0.1-1,0.8-1.3,0.7c-0.2-0.1-0.6-1-0.8-1.2
				c-1.8-2.3-4.9-3-7.2-4.7c-1.6-1.2-2.6-2.9-3.4-4.7c-0.4-1-0.8-2-1.2-3c-0.2-0.5-0.4-1-0.6-1.5c-0.1-0.3-0.4-0.6-0.5-0.8
				c0,0.8,0,1.7,0,2.5c0.1-0.1,0.1-0.1,0.2-0.2c0.1-0.2,0-1,0-1.2C39,60.6,38.8,59.7,39,59.6z"/>
		</g>
	</g>
</g>
<path class="st12" d="M31.1,59.7"/>
<path class="st13" d="M94.6-3.4"/>
</svg>
